<svg id="DOCS_outlined" data-name="DOCS outlined" xmlns="http://www.w3.org/2000/svg" xmlns:xlink="http://www.w3.org/1999/xlink" viewBox="0 0 1433.53 110.55"><defs><style>.cls-1{fill:#fff;}.cls-2{fill:#131b3c;}.cls-3{mask:url(#mask);}.cls-4{fill:#37b34a;}.cls-5{fill:#3075ba;}.cls-6{fill:#dd1c4d;}.cls-7{mask:url(#mask-2-2);}</style><mask id="mask" x="752.28" y="46.12" width="27.6" height="17.28" maskUnits="userSpaceOnUse"><g id="mask-2"><polygon id="path-1" class="cls-1" points="752.28 46.13 779.89 46.13 779.89 63.4 752.28 63.4 752.28 46.13"/></g></mask><mask id="mask-2-2" x="0" y="0" width="779.89" height="110.03" maskUnits="userSpaceOnUse"><g id="mask-4"><polygon id="path-3" class="cls-1" points="0 110.03 779.89 110.03 779.89 0 0 0 0 110.03"/></g></mask></defs><title>ICGC-ARGO-Documentation-logo</title><g id="Symbols"><g id="logos_primary" data-name="logos/primary"><g id="logo-primary"><path id="Fill-1" class="cls-2" d="M727.08,83.14c-.14,1.24-.27,2.49-.42,3.74h42.81a54.58,54.58,0,0,0,8.38-17.28H749.44a28.43,28.43,0,0,1-22.36,13.54"/><path id="Fill-3" class="cls-2" d="M672.51,69.6a54.27,54.27,0,0,0,8.38,17.28h10.84a56.37,56.37,0,0,1-8-17.28Z"/><g id="Group-7"><g class="cls-3"><path id="Fill-5" class="cls-2" d="M752.28,63.4h26.93a55.23,55.23,0,0,0,0-17.28H752.28a28.52,28.52,0,0,1,0,17.28"/></g></g><path id="Fill-8" class="cls-2" d="M682.47,46.12H671.15a55.23,55.23,0,0,0,0,17.28h11.29a54.06,54.06,0,0,1,0-17.28"/><path id="Fill-10" class="cls-2" d="M764.22,16.45a54.52,54.52,0,0,0-39-16.39h-.73c.93,5.44,1.69,10.9,2.32,16.38Z"/><path id="Fill-12" class="cls-2" d="M724.17.08a54.54,54.54,0,0,0-38,16.36h10.69A56.63,56.63,0,0,1,724.17.08"/><path id="Fill-14" class="cls-2" d="M680.89,22.65a54.32,54.32,0,0,0-8.38,17.27h11.27a56.16,56.16,0,0,1,8.09-17.27Z"/><path id="Fill-16" class="cls-2" d="M749.44,39.92h28.41a54.53,54.53,0,0,0-8.38-17.27H727.42c.12,1.26.23,2.53.33,3.79a28.45,28.45,0,0,1,21.69,13.48"/><path id="Fill-18" class="cls-2" d="M723.15,109.39a56.6,56.6,0,0,1-26.52-16.31h-10.5a54.7,54.7,0,0,0,78.09,0H725.86c-.76,5.45-1.65,10.89-2.71,16.31"/><path id="Fill-20" class="cls-4" d="M724.65,0l-.48.14h.5a.59.59,0,0,1,0-.13"/><path id="Fill-22" class="cls-5" d="M725.18,83.21A28.43,28.43,0,0,1,700.91,69.6H683.72a56.37,56.37,0,0,0,8,17.28h34.93c.15-1.25.28-2.49.42-3.74-.63,0-1.26.07-1.9.07"/><path id="Fill-24" class="cls-5" d="M698.07,46.12h-15.6a54.06,54.06,0,0,0,0,17.28h15.63a28.52,28.52,0,0,1,0-17.28"/><path id="Fill-26" class="cls-5" d="M696.82,16.45h29.95C726.14,11,725.38,5.51,724.45.07h-.28a56.49,56.49,0,0,0-27.35,16.37"/><path id="Fill-28" class="cls-5" d="M725.18,26.32c.87,0,1.73.05,2.57.12-.1-1.26-.21-2.53-.33-3.79H691.87a56.16,56.16,0,0,0-8.09,17.27h17.13a28.42,28.42,0,0,1,24.27-13.6"/><path id="Fill-30" class="cls-5" d="M723.15,109.39c1.06-5.42,2-10.86,2.71-16.31H696.63a56.6,56.6,0,0,0,26.52,16.31"/><path id="Fill-32" class="cls-6" d="M726.52,43.44V53.65h10.74a38.09,38.09,0,0,0-1.63-10.21Z"/><path id="Fill-34" class="cls-6" d="M726.52,55.87V66.09h9.11a38.23,38.23,0,0,0,1.63-10.22Z"/><path id="Fill-36" class="cls-6" d="M724.3,66.09V55.87H713.56a38.23,38.23,0,0,0,1.63,10.22Z"/><path id="Fill-38" class="cls-6" d="M724.3,77.33v-9H716c2,5,5,8.4,8.33,9"/><path id="Fill-40" class="cls-6" d="M724.3,53.65V43.44h-9.11a38.09,38.09,0,0,0-1.63,10.21Z"/><path id="Fill-42" class="cls-6" d="M737.29,68.3a22.29,22.29,0,0,1-4.69,8A23.26,23.26,0,0,0,736,74.79a23,23,0,0,0,7.35-6.49Z"/><path id="Fill-44" class="cls-6" d="M724.3,41.22v-9h0c-3.35.64-6.33,4.07-8.3,9Z"/><path id="Fill-46" class="cls-6" d="M726.52,68.3v9c3.36-.63,6.36-4.06,8.33-9Z"/><path id="Fill-48" class="cls-6" d="M718.22,76.26a22.29,22.29,0,0,1-4.69-8h-6.3a22.72,22.72,0,0,0,11,8"/><path id="Fill-50" class="cls-6" d="M712.82,66.09a41.47,41.47,0,0,1-1.48-10.22h-8.58a22.52,22.52,0,0,0,3,10.22Z"/><path id="Fill-52" class="cls-6" d="M739.48,55.87A41.47,41.47,0,0,1,738,66.09h6.83a22.72,22.72,0,0,0,2.93-10.22Z"/><path id="Fill-54" class="cls-6" d="M738,43.44a41.32,41.32,0,0,1,1.48,10.21h8.27a22.5,22.5,0,0,0-3.08-10.21Z"/><path id="Fill-56" class="cls-6" d="M726.78,32.25l-.26,0v9h8.33c-1.92-4.84-4.82-8.22-8.07-9"/><path id="Fill-58" class="cls-6" d="M732.89,33.57a22.61,22.61,0,0,1,4.4,7.65h5.9a22.8,22.8,0,0,0-10.3-7.65"/><path id="Fill-60" class="cls-6" d="M707.23,41.22h6.3a22.29,22.29,0,0,1,4.69-8,22.72,22.72,0,0,0-11,8"/><path id="Fill-62" class="cls-6" d="M711.34,53.65a41.32,41.32,0,0,1,1.48-10.21h-7a22.44,22.44,0,0,0-3,10.21Z"/><g class="cls-7"><polygon id="Fill-64" class="cls-2" points="0 108.26 22.75 108.26 22.75 4.85 0 4.85 0 108.26"/></g><g class="cls-7"><path id="Fill-66" class="cls-2" d="M32.94,56.85v-.3c0-29.39,22.16-53.48,53.93-53.48,19.5,0,31.17,6.5,40.77,16L113.16,35.72c-8-7.24-16.1-11.67-26.44-11.67-17.43,0-30,14.48-30,32.21v.29c0,17.73,12.26,32.51,30,32.51,11.82,0,19.06-4.73,27.18-12.12l14.48,14.63C117.74,102.94,105.92,110,86,110c-30.43,0-53-23.49-53-53.18"/></g><g class="cls-7"><path id="Fill-67" class="cls-2" d="M127.94,56.85v-.3c0-29.39,22.9-53.48,54.22-53.48,18.61,0,29.84,5,40.62,14.19L208.45,34.54c-8-6.65-15.06-10.49-27-10.49-16.55,0-29.7,14.63-29.7,32.21v.29c0,18.91,13,32.8,31.32,32.8,8.28,0,15.66-2.07,21.43-6.2V68.37h-22.9V48.72h44.91V93.64A67.15,67.15,0,0,1,182.31,110c-32.21,0-54.37-22.6-54.37-53.18"/></g><g class="cls-7"><path id="Fill-68" class="cls-2" d="M232.68,56.85v-.3c0-29.39,22.16-53.48,53.93-53.48,19.5,0,31.17,6.5,40.77,16L312.9,35.72c-8-7.24-16.1-11.67-26.44-11.67-17.43,0-30,14.48-30,32.21v.29c0,17.73,12.26,32.51,30,32.51,11.82,0,19.06-4.73,27.18-12.12l14.48,14.63C317.48,102.94,305.66,110,285.72,110c-30.43,0-53-23.49-53-53.18"/></g><g class="cls-7"><path id="Fill-69" class="cls-2" d="M427.84,65,414.1,31.44,400.36,65ZM403.91,4.11h21L469.2,108.26H445.42L436,85.07H392.24l-9.46,23.19H359.59Z"/></g><g class="cls-7"><path id="Fill-70" class="cls-2" d="M519.88,55.08c11.08,0,17.43-5.91,17.43-14.63v-.29c0-9.75-6.8-14.78-17.88-14.78h-22.6v29.7ZM474.08,4.85h47.28c13.14,0,23.34,3.69,30.13,10.49,5.77,5.76,8.87,13.88,8.87,23.63v.3c0,16.69-9,27.18-22.16,32.06l25.26,36.93H536.87L514.71,75.17H496.83v33.09H474.08Z"/></g><g class="cls-7"><path id="Fill-71" class="cls-2" d="M565.23,56.85v-.3c0-29.39,22.9-53.48,54.22-53.48,18.62,0,29.84,5,40.63,14.19L645.75,34.54c-8-6.65-15.07-10.49-27-10.49C602.17,24.05,589,38.68,589,56.26v.29c0,18.91,13,32.8,31.32,32.8,8.27,0,15.66-2.07,21.42-6.2V68.37h-22.9V48.72h44.91V93.64A67.13,67.13,0,0,1,619.6,110c-32.21,0-54.37-22.6-54.37-53.18"/></g></g></g></g><path class="cls-2" d="M900.4,37.39q7.13,7,7.12,19.76T900.4,76.91q-7.14,7-19.77,7H863.38V30.42h17.25Q893.27,30.42,900.4,37.39Zm-4.82,35q5.14-5.48,5.14-15.19T895.58,42q-5.15-5.46-14.3-5.46H869.86V77.8h11.42Q890.43,77.8,895.58,72.34Z"/><path class="cls-2" d="M950,48.16q5.22,5.58,5.22,15.47T950,79.1q-5.22,5.59-14.38,5.59T921.25,79.1Q916,73.52,916,63.63t5.22-15.47q5.24-5.59,14.38-5.59T950,48.16Zm-24,4.13q-3.48,4.13-3.48,11.34T926,75a13.32,13.32,0,0,0,19.28,0q3.48-4.12,3.48-11.34t-3.48-11.34a13.32,13.32,0,0,0-19.28,0Z"/><path class="cls-2" d="M993.1,45.36a18.62,18.62,0,0,1,6.52,8l-6.16,2.92q-2.58-8-10.77-8a11.77,11.77,0,0,0-9.52,4.09q-3.43,4.1-3.44,11.3t3.44,11.3A11.77,11.77,0,0,0,982.69,79a12.34,12.34,0,0,0,7.57-2.15A10.07,10.07,0,0,0,994,70.68l6,2.1a18.33,18.33,0,0,1-6.48,8.79,18,18,0,0,1-10.7,3.12q-9.15,0-14.37-5.59t-5.23-15.47q0-9.89,5.23-15.47t14.37-5.59A18,18,0,0,1,993.1,45.36Z"/><path class="cls-2" d="M1044.49,43.38v40.5h-5.67l-.4-6.16q-4.05,7-14.5,7a15.76,15.76,0,0,1-10.73-3.64c-2.79-2.43-4.17-6.16-4.17-11.18V43.38h6.48V68.17q0,5.91,2.43,8.38t7.12,2.47a13.15,13.15,0,0,0,9.28-3.4q3.68-3.41,3.68-10.21v-22Z"/><path class="cls-2" d="M1112.17,44.23a13.44,13.44,0,0,1,5.71,5.14,15.87,15.87,0,0,1,2.19,8.59V83.88h-6.48V58.61q0-5.26-2.64-7.82a9.51,9.51,0,0,0-6.92-2.55,11.45,11.45,0,0,0-10.33,6.2,14.85,14.85,0,0,0-1.66,7.25V83.88h-6.48V58.61q0-5.26-2.63-7.82a9.55,9.55,0,0,0-6.93-2.55,11.74,11.74,0,0,0-5.67,1.5,11.51,11.51,0,0,0-4.53,4.66,15.74,15.74,0,0,0-1.79,7.85V83.88h-6.48V43.38h5.67l.41,6.32a13.65,13.65,0,0,1,5.55-5.35,16,16,0,0,1,7.41-1.78,17.19,17.19,0,0,1,8.22,2,13.4,13.4,0,0,1,5.71,5.92,12.23,12.23,0,0,1,5.83-5.92,18.43,18.43,0,0,1,8.26-2A17.53,17.53,0,0,1,1112.17,44.23Z"/><path class="cls-2" d="M1167.13,66.06h-30.54q.57,6.15,4.09,9.56a12.57,12.57,0,0,0,9.11,3.4,15.89,15.89,0,0,0,7.41-1.54,8,8,0,0,0,4-4.45l5.43,2.83a16.82,16.82,0,0,1-6.48,6.56,21.1,21.1,0,0,1-10.37,2.27q-9.15,0-14.38-5.59t-5.22-15.47q0-9.89,5-15.47t14.14-5.59a18.58,18.58,0,0,1,9.8,2.51,16.15,16.15,0,0,1,6.23,6.8,21.56,21.56,0,0,1,2.11,9.64A32.89,32.89,0,0,1,1167.13,66.06ZM1140.68,51.4a14.47,14.47,0,0,0-4,8.91h24.54a14.8,14.8,0,0,0-3.72-8.87,10.85,10.85,0,0,0-8.18-3.2A11.9,11.9,0,0,0,1140.68,51.4Z"/><path class="cls-2" d="M1208.76,46.54q4.46,4,4.45,11.42V83.88h-6.48V60.23q0-6.31-2.71-9.15a9.58,9.58,0,0,0-7.25-2.84,13.32,13.32,0,0,0-6.07,1.42,11,11,0,0,0-4.66,4.61,16.08,16.08,0,0,0-1.82,8.06V83.88h-6.48V43.38h5.67l.4,6.32a12.64,12.64,0,0,1,5.59-5.39,18.06,18.06,0,0,1,8-1.74A16.39,16.39,0,0,1,1208.76,46.54Z"/><path class="cls-2" d="M1250.07,81.05a15.08,15.08,0,0,1-10.45,3.64,12,12,0,0,1-8.06-2.67q-3.12-2.67-3.2-8.18V49h-8.1V43.38h8.1V33.66l6.48-1.78v11.5h15V49h-15V72.7a5.64,5.64,0,0,0,1.66,4.42,6.35,6.35,0,0,0,4.42,1.5,9.46,9.46,0,0,0,6.88-3Z"/><path class="cls-2" d="M1293.65,78.78l-.41,5.1a14.33,14.33,0,0,1-4.86.81,8.07,8.07,0,0,1-5-1.38,6.69,6.69,0,0,1-2.31-4.61,12.1,12.1,0,0,1-5.47,4.41,18.68,18.68,0,0,1-7.57,1.58,16.51,16.51,0,0,1-9.88-2.79,9.33,9.33,0,0,1-3.89-8.06,10.08,10.08,0,0,1,4-8q4.05-3.36,11.74-4.66l10.78-1.78V57.15a8.62,8.62,0,0,0-2.51-6.48,9.62,9.62,0,0,0-7-2.43,11.81,11.81,0,0,0-11.58,7.69L1255,52.45a13.66,13.66,0,0,1,6-7.21,19.6,19.6,0,0,1,10.33-2.67q7.22,0,11.58,3.48c2.92,2.33,4.38,5.75,4.38,10.29V76.27a2.93,2.93,0,0,0,.73,2.18,3.18,3.18,0,0,0,2.35.73A13.31,13.31,0,0,0,1293.65,78.78Zm-16.49-2.19a7.31,7.31,0,0,0,3.69-6.32V64.68l-9.07,1.7a21.3,21.3,0,0,0-8.1,2.8,5.44,5.44,0,0,0-2.68,4.66,4.37,4.37,0,0,0,2,3.84,9.46,9.46,0,0,0,5.42,1.34A15.6,15.6,0,0,0,1277.16,76.59Z"/><path class="cls-2" d="M1324.18,81.05a15.06,15.06,0,0,1-10.44,3.64,11.93,11.93,0,0,1-8.06-2.67q-3.12-2.67-3.2-8.18V49h-8.1V43.38h8.1V33.66l6.48-1.78v11.5h15V49h-15V72.7a5.64,5.64,0,0,0,1.66,4.42,6.3,6.3,0,0,0,4.41,1.5,9.48,9.48,0,0,0,6.89-3Z"/><path class="cls-2" d="M1331,34.27a4.78,4.78,0,0,1-1.34-3.53,4.86,4.86,0,1,1,9.72,0,5,5,0,0,1-8.38,3.53Zm6.76,49.61h-6.48V43.38h6.48Z"/><path class="cls-2" d="M1382.3,48.16q5.22,5.58,5.22,15.47T1382.3,79.1q-5.22,5.59-14.38,5.59t-14.38-5.59q-5.22-5.58-5.22-15.47t5.22-15.47q5.24-5.59,14.38-5.59T1382.3,48.16Zm-24,4.13q-3.48,4.13-3.48,11.34T1358.28,75a13.32,13.32,0,0,0,19.28,0q3.48-4.12,3.48-11.34t-3.48-11.34a13.32,13.32,0,0,0-19.28,0Z"/><path class="cls-2" d="M1429.08,46.54q4.45,4,4.45,11.42V83.88h-6.48V60.23q0-6.31-2.71-9.15a9.58,9.58,0,0,0-7.25-2.84,13.36,13.36,0,0,0-6.08,1.42,11,11,0,0,0-4.65,4.61,16.07,16.07,0,0,0-1.83,8.06V83.88h-6.48V43.38h5.67l.41,6.32a12.64,12.64,0,0,1,5.59-5.39,18,18,0,0,1,8-1.74A16.41,16.41,0,0,1,1429.08,46.54Z"/><rect class="cls-2" x="820.5" y="2.55" width="2" height="108"/></svg>