<?xml version="1.0" encoding="UTF-8"?>
<svg width="174px" height="25px" viewBox="0 0 174 25" version="1.1" xmlns="http://www.w3.org/2000/svg" xmlns:xlink="http://www.w3.org/1999/xlink">
    <!-- Generator: sketchtool 54.1 (76490) - https://sketchapp.com -->
    <title>0F98DE9B-8C46-41B5-AE14-762E04CB601F</title>
    <desc>Created with sketchtool.</desc>
    <defs>
        <polygon id="path-1" points="0.0679028409 0.0796280391 6.22544318 0.0796280391 6.22544318 3.9427689 0.0679028409 3.9427689"></polygon>
        <polygon id="path-3" points="0 24.6035941 173.96408 24.6035941 173.96408 0 0 0"></polygon>
    </defs>
    <g id="Pages---Documentation" stroke="none" stroke-width="1" fill="none" fill-rule="evenodd">
        <g id="Documentation/landing" transform="translate(-16.000000, -16.000000)">
            <g id="content">
                <g id="Header">
                    <g id="logos/primary" transform="translate(16.000000, 16.000000)">
                        <g id="logo-primary">
                            <path d="M162.184477,18.5892739 C162.154818,18.8684098 162.1245,19.1475456 162.091381,19.4263511 L171.640125,19.4263511 C172.475193,18.273966 173.114841,16.9701209 173.509472,15.5633754 L167.173631,15.5633754 C166.127983,17.2740321 164.297358,18.4493757 162.184477,18.5892739" id="Fill-1" fill="#131B3C"></path>
                            <path d="M150.011892,15.5633258 C150.406523,16.9702365 151.046006,18.2739165 151.881239,19.4264667 L154.299773,19.4264667 C153.501284,18.2633457 152.889648,16.9629691 152.513966,15.5633258 L150.011892,15.5633258 Z" id="Fill-3" fill="#131B3C"></path>
                            <g id="Group-7" transform="translate(167.738636, 10.233879)">
                                <mask id="mask-2" fill="white">
                                    <use xlink:href="#path-1"></use>
                                </mask>
                                <g id="Clip-6"></g>
                                <path d="M0.0679028409,3.9427689 L6.07370398,3.9427689 C6.1732267,3.3134745 6.22545966,2.66848903 6.22545966,2.01128105 C6.22545966,1.3539079 6.1732267,0.708922437 6.07370398,0.0796280391 L0.0679028409,0.0796280391 C0.261346023,0.689102141 0.366471023,1.33772133 0.366471023,2.01128105 C0.366471023,2.68484078 0.261346023,3.33362513 0.0679028409,3.9427689" id="Fill-5" fill="#131B3C" mask="url(#mask-2)"></path>
                            </g>
                            <path d="M152.233902,10.3135571 L149.709254,10.3135571 C149.609402,10.9428515 149.557169,11.5878369 149.557169,12.2450449 C149.557169,12.9024181 149.609402,13.5474035 149.709254,14.1766979 L152.226652,14.1766979 C152.132731,13.5540103 152.076709,12.9186047 152.076709,12.2698203 C152.076709,11.6036932 152.135038,10.9517706 152.233902,10.3135571" id="Fill-8" fill="#131B3C"></path>
                            <path d="M170.469612,3.67711086 C168.255397,1.41578026 165.17184,0.0123381342 161.760715,0.0123381342 C161.706505,0.0123381342 161.653283,0.0156415169 161.599237,0.0164673626 C161.806192,1.23277286 161.975908,2.45370309 162.116459,3.67711086 L170.469612,3.67711086 Z" id="Fill-10" fill="#131B3C"></path>
                            <path d="M161.536657,0.0180695032 C158.215168,0.0781910677 155.217293,1.46561179 153.051685,3.67706131 L155.434464,3.67706131 C157.052202,1.92494715 159.158657,0.633985201 161.536657,0.0180695032" id="Fill-12" fill="#131B3C"></path>
                            <path d="M151.881189,5.06395349 C151.046121,6.21633853 150.406473,7.5200185 150.011843,8.92692918 L152.527098,8.92692918 C152.908877,7.5264601 153.52628,6.22575317 154.33136,5.06395349 L151.881189,5.06395349 Z" id="Fill-14" fill="#131B3C"></path>
                            <path d="M167.17368,8.92687962 L173.509521,8.92687962 C173.11489,7.51996895 172.475243,6.21628898 171.64001,5.06390394 L162.26164,5.06390394 C162.288334,5.34650832 162.31239,5.62944305 162.335623,5.91237777 C164.384572,6.09703687 166.152913,7.25718486 167.17368,8.92687962" id="Fill-16" fill="#131B3C"></path>
                            <path d="M161.307837,24.4597152 C159.002831,23.8160511 156.965416,22.5318611 155.39332,20.8131111 L153.051735,20.8131111 C155.266115,23.0744417 158.349672,24.4778839 161.760632,24.4778839 C165.171757,24.4778839 168.255314,23.0744417 170.469695,20.8131111 L161.912553,20.8131111 C161.743166,22.0323897 161.544286,23.2486952 161.307837,24.4597152" id="Fill-18" fill="#131B3C"></path>
                            <path d="M161.64225,0 C161.60658,0.00901162791 161.57236,0.0223837209 161.53669,0.0316860465 C161.57323,0.0308139535 161.61006,0.0293604651 161.64689,0.0290697674 C161.64515,0.0191860465 161.64399,0.00959302326 161.64225,0" id="Fill-20" fill="#37B34A"></path>
                            <path d="M161.760632,18.6049154 C159.469797,18.6049154 157.46303,17.3876189 156.347519,15.5633258 L152.513916,15.5633258 C152.889598,16.9629691 153.501235,18.2633457 154.299888,19.4264667 L162.091331,19.4264667 C162.124451,19.147496 162.154934,18.8685254 162.184428,18.5892244 C162.044371,18.598639 161.903326,18.6049154 161.760632,18.6049154" id="Fill-22" fill="#3075BA"></path>
                            <path d="M155.71489,10.3135571 L152.233902,10.3135571 C152.135038,10.9517706 152.076709,11.6036932 152.076709,12.2698203 C152.076709,12.9186047 152.132731,13.5540103 152.226652,14.1766979 L155.71489,14.1766979 C155.521282,13.567389 155.416157,12.9186047 155.416157,12.2450449 C155.416157,11.5714852 155.521282,10.922866 155.71489,10.3135571" id="Fill-24" fill="#3075BA"></path>
                            <path d="M155.434431,3.67711086 L162.116459,3.67711086 C161.975908,2.45370309 161.806192,1.23277286 161.599238,0.0164673626 C161.578311,0.0166325317 161.557385,0.0176235465 161.536624,0.0181190539 C159.158789,0.633869582 157.052169,1.9249967 155.434431,3.67711086" id="Fill-26" fill="#3075BA"></path>
                            <path d="M161.760632,5.88529004 C161.95457,5.88529004 162.146201,5.89553052 162.335524,5.91237777 C162.312456,5.62944305 162.288235,5.34650832 162.261706,5.06390394 L154.33136,5.06390394 C153.52628,6.22586879 152.908877,7.52657571 152.527098,8.92687962 L156.347519,8.92687962 C157.46303,7.10258655 159.469797,5.88529004 161.760632,5.88529004" id="Fill-28" fill="#3075BA"></path>
                            <path d="M161.307837,24.4597152 C161.544286,23.2486952 161.743166,22.0323897 161.912553,20.8131111 L155.39332,20.8131111 C156.965416,22.5318611 159.002831,23.8160511 161.307837,24.4597152" id="Fill-30" fill="#3075BA"></path>
                            <path d="M162.059777,9.71240751 L162.059777,11.9968618 L164.456067,11.9968618 C164.434152,11.1733285 164.303487,10.3947212 164.092578,9.71240751 L162.059777,9.71240751 Z" id="Fill-32" fill="#DD1C4D"></path>
                            <path d="M162.059777,12.4923692 L162.059777,14.7768235 L164.092578,14.7768235 C164.303487,14.0945098 164.434152,13.3159025 164.456067,12.4923692 L162.059777,12.4923692 Z" id="Fill-34" fill="#DD1C4D"></path>
                            <path d="M161.565459,14.77684 L161.565459,12.4923857 L159.169334,12.4923857 C159.191249,13.315919 159.321914,14.0945263 159.532987,14.77684 L161.565459,14.77684 Z" id="Fill-36" fill="#DD1C4D"></path>
                            <path d="M161.565459,17.2911436 L161.565459,15.2722813 L159.706493,15.2722813 C160.146766,16.3825482 160.816237,17.150915 161.565459,17.2911436" id="Fill-38" fill="#DD1C4D"></path>
                            <path d="M161.565459,11.9968618 L161.565459,9.71240751 L159.532987,9.71240751 C159.321914,10.3947212 159.191249,11.1733285 159.169334,11.9968618 L161.565459,11.9968618 Z" id="Fill-40" fill="#DD1C4D"></path>
                            <path d="M164.462015,15.2723474 C164.198709,16.0040466 163.841152,16.6136859 163.417191,17.0518796 C163.682805,16.9626883 163.938697,16.8525205 164.182726,16.722202 C164.829294,16.3631243 165.389356,15.8667911 165.824191,15.2723474 L164.462015,15.2723474 Z" id="Fill-42" fill="#DD1C4D"></path>
                            <path d="M161.565459,9.21690011 L161.565459,7.19886364 C161.562987,7.19886364 161.560681,7.19886364 161.558209,7.19902881 C160.811953,7.34289112 160.145283,8.11010174 159.706493,9.21690011 L161.565459,9.21690011 Z" id="Fill-44" fill="#DD1C4D"></path>
                            <path d="M162.059777,15.2723474 L162.059777,17.2912097 C162.809164,17.1509811 163.478635,16.3826143 163.918908,15.2723474 L162.059777,15.2723474 Z" id="Fill-46" fill="#DD1C4D"></path>
                            <path d="M160.208177,17.0519457 C159.784216,16.613752 159.426824,16.0037824 159.163518,15.2724135 L157.757841,15.2724135 C158.368654,16.0921479 159.221353,16.7201209 160.208177,17.0519457" id="Fill-48" fill="#DD1C4D"></path>
                            <path d="M159.005039,14.77684 C158.811102,14.0894061 158.694607,13.3170752 158.675164,12.4923857 L156.76067,12.4923857 C156.80071,13.3213696 157.041278,14.0983252 157.433272,14.77684 L159.005039,14.77684 Z" id="Fill-50" fill="#DD1C4D"></path>
                            <path d="M164.950369,12.4923692 C164.930926,13.3170587 164.814431,14.0893895 164.620494,14.7768235 L166.143818,14.7768235 C166.529221,14.0969873 166.763034,13.3201969 166.797965,12.4923692 L164.950369,12.4923692 Z" id="Fill-52" fill="#DD1C4D"></path>
                            <path d="M164.62051,9.71240751 C164.814448,10.3998414 164.930942,11.1721723 164.950385,11.9968618 L166.79551,11.9968618 C166.750692,11.1670521 166.505345,10.3900965 166.108737,9.71240751 L164.62051,9.71240751 Z" id="Fill-54" fill="#DD1C4D"></path>
                            <path d="M162.117217,7.21050806 C162.098103,7.20902154 162.079155,7.20720468 162.059711,7.20621366 L162.059711,9.21681752 L163.919007,9.21681752 C163.490103,8.13512487 162.843206,7.37848507 162.117217,7.21050806" id="Fill-56" fill="#DD1C4D"></path>
                            <path d="M163.481898,7.50568182 C163.877682,7.93809461 164.212335,8.52279334 164.461966,9.21683404 L165.779159,9.21683404 C165.197511,8.44582452 164.402318,7.84559989 163.481898,7.50568182" id="Fill-58" fill="#DD1C4D"></path>
                            <path d="M157.75766,9.21690011 L159.163501,9.21690011 C159.426808,8.48520085 159.7842,7.87539641 160.20816,7.43703753 C159.221172,7.76886232 158.368473,8.39700053 157.75766,9.21690011" id="Fill-60" fill="#DD1C4D"></path>
                            <path d="M158.675164,11.9968618 C158.694607,11.1721723 158.811102,10.3998414 159.005039,9.71240751 L157.433272,9.71240751 C157.041278,10.3909223 156.80071,11.1677127 156.76067,11.9968618 L158.675164,11.9968618 Z" id="Fill-62" fill="#DD1C4D"></path>
                            <mask id="mask-4" fill="white">
                                <use xlink:href="#path-3"></use>
                            </mask>
                            <g id="Clip-65"></g>
                            <polygon id="Fill-64" fill="#131B3C" mask="url(#mask-4)" points="0 24.2071882 5.07483523 24.2071882 5.07483523 1.08383985 0 1.08383985"></polygon>
                            <path d="M7.34863295,12.7115817 L7.34863295,12.645514 C7.34863295,6.07194767 12.2918148,0.687433932 19.3768773,0.687433932 C23.7267125,0.687433932 26.3301216,2.1409223 28.472167,4.25508721 L25.2427864,7.98774445 C23.4632409,6.36925211 21.6507409,5.37823732 19.3439227,5.37823732 C15.4552864,5.37823732 12.6543148,8.61538716 12.6543148,12.5794464 L12.6543148,12.645514 C12.6543148,16.6095732 15.389542,19.9127907 19.3439227,19.9127907 C21.9802864,19.9127907 23.5950591,18.8557082 25.4075591,17.2040169 L28.6369398,20.4743658 C26.2643773,23.0178052 23.6280136,24.6035941 19.17915,24.6035941 C12.3906784,24.6035941 7.34863295,19.3512156 7.34863295,12.7115817" id="Fill-66" fill="#131B3C" mask="url(#mask-4)"></path>
                            <path d="M28.5385045,12.7115817 L28.5385045,12.645514 C28.5385045,6.07194767 33.6464591,0.687433932 40.632658,0.687433932 C44.7849307,0.687433932 47.2894761,1.81058404 49.6949932,3.85851612 L46.498567,7.72347384 C44.7188568,6.23695164 43.1372034,5.37823732 40.4678852,5.37823732 C36.7769761,5.37823732 33.8441864,8.64842098 33.8441864,12.5794464 L33.8441864,12.645514 C33.8441864,16.8736786 36.7441864,19.9788584 40.8303852,19.9788584 C42.6758398,19.9788584 44.323567,19.5163848 45.6087943,18.5916028 L45.6087943,15.2882201 L40.5008398,15.2882201 L40.5008398,10.8947212 L50.5188568,10.8947212 L50.5188568,20.9368393 C48.1461295,22.9519027 44.8836295,24.6035941 40.6656125,24.6035941 C33.4816864,24.6035941 28.5385045,19.5494186 28.5385045,12.7115817" id="Fill-67" fill="#131B3C" mask="url(#mask-4)"></path>
                            <path d="M51.9032443,12.7115817 L51.9032443,12.645514 C51.9032443,6.07194767 56.8464261,0.687433932 63.9314886,0.687433932 C68.2813239,0.687433932 70.884733,2.1409223 73.0267784,4.25508721 L69.7973977,7.98774445 C68.0178523,6.36925211 66.2053523,5.37823732 63.8985341,5.37823732 C60.0098977,5.37823732 57.2089261,8.61538716 57.2089261,12.5794464 L57.2089261,12.645514 C57.2089261,16.6095732 59.9441534,19.9127907 63.8985341,19.9127907 C66.5348977,19.9127907 68.1496705,18.8557082 69.9621705,17.2040169 L73.1915511,20.4743658 C70.8189886,23.0178052 68.182625,24.6035941 63.7337614,24.6035941 C56.9452898,24.6035941 51.9032443,19.3512156 51.9032443,12.7115817" id="Fill-68" fill="#131B3C" mask="url(#mask-4)"></path>
                            <path d="M95.4352761,14.5284421 L92.3705034,7.02992865 L89.3058955,14.5284421 L95.4352761,14.5284421 Z M90.0968045,0.918670719 L94.7761852,0.918670719 L104.662384,24.2071882 L99.356867,24.2071882 L97.2477761,19.0208774 L87.4933955,19.0208774 L85.3843045,24.2071882 L80.2106057,24.2071882 L90.0968045,0.918670719 Z" id="Fill-69" fill="#131B3C" mask="url(#mask-4)"></path>
                            <path d="M115.965892,12.3151097 C118.437483,12.3151097 119.854528,10.9937566 119.854528,9.04476084 L119.854528,8.97885835 C119.854528,6.79862579 118.338455,5.67547569 115.867028,5.67547569 L110.825148,5.67547569 L110.825148,12.3151097 L115.965892,12.3151097 Z M105.750148,1.08377378 L116.295437,1.08377378 C119.228392,1.08377378 121.502256,1.90961945 123.018165,3.42917548 C124.303392,4.71749471 124.995273,6.53435518 124.995273,8.71442257 L124.995273,8.78065539 C124.995273,12.5133126 122.98521,14.8585492 120.052256,15.9488306 L125.687318,24.2071221 L119.755665,24.2071221 L114.812483,16.8077101 L110.825148,16.8077101 L110.825148,24.2071221 L105.750148,24.2071221 L105.750148,1.08377378 Z" id="Fill-70" fill="#131B3C" mask="url(#mask-4)"></path>
                            <path d="M126.082839,12.7115817 L126.082839,12.645514 C126.082839,6.07194767 131.190793,0.687433932 138.176992,0.687433932 C142.329265,0.687433932 144.83381,1.81058404 147.239327,3.85851612 L144.042901,7.72347384 C142.263356,6.23695164 140.681538,5.37823732 138.012219,5.37823732 C134.32131,5.37823732 131.38852,8.64842098 131.38852,12.5794464 L131.38852,12.645514 C131.38852,16.8736786 134.28852,19.9788584 138.374719,19.9788584 C140.220174,19.9788584 141.867901,19.5163848 143.153128,18.5916028 L143.153128,15.2882201 L138.045339,15.2882201 L138.045339,10.8947212 L148.063191,10.8947212 L148.063191,20.9368393 C145.690464,22.9519027 142.427964,24.6035941 138.209947,24.6035941 C131.02602,24.6035941 126.082839,19.5494186 126.082839,12.7115817" id="Fill-71" fill="#131B3C" mask="url(#mask-4)"></path>
                        </g>
                    </g>
                </g>
            </g>
        </g>
    </g>
</svg>