<svg xmlns="http://www.w3.org/2000/svg" xmlns:xlink="http://www.w3.org/1999/xlink" width="240" height="52" viewBox="0 0 240 52">
    <defs>
        <path id="a" d="M0 51.228h239.959V.008H0z"/>
    </defs>
    <g fill="none" fill-rule="evenodd">
        <path fill="#131B3C" d="M144.293 5.04l-1.028-2.501-1.027 2.5h2.055zM142.503.5h1.57l3.314 7.767h-1.779l-.707-1.73h-3.271l-.708 1.73h-1.734L142.503.5z"/>
        <g transform="translate(0 .192)">
            <path fill="#131B3C" d="M147.4 5.156v-.023c0-1.685 1.292-3.073 3.104-3.073 1.117 0 1.813.374 2.366.991l-1.028 1.102c-.376-.397-.752-.65-1.349-.65-.84 0-1.436.738-1.436 1.608v.022c0 .904.586 1.63 1.503 1.63.563 0 .95-.241 1.359-.627l.984.991c-.575.628-1.238 1.08-2.42 1.08-1.78 0-3.084-1.366-3.084-3.051M153.102 5.156v-.023c0-1.685 1.293-3.073 3.106-3.073 1.116 0 1.812.374 2.365.991l-1.028 1.102c-.376-.397-.752-.65-1.349-.65-.84 0-1.436.738-1.436 1.608v.022c0 .904.586 1.63 1.503 1.63.563 0 .95-.241 1.36-.627l.983.991c-.575.628-1.238 1.08-2.42 1.08-1.78 0-3.084-1.366-3.084-3.051M162.982 4.66c-.1-.75-.541-1.256-1.248-1.256-.697 0-1.15.496-1.282 1.256h2.53zm-4.177.496v-.023c0-1.685 1.205-3.073 2.929-3.073 1.978 0 2.884 1.531 2.884 3.206 0 .132-.011.286-.022.44h-4.122c.166.76.696 1.157 1.447 1.157.564 0 .973-.176 1.437-.606l.962.848c-.553.683-1.349 1.102-2.42 1.102-1.78 0-3.095-1.245-3.095-3.051z"/>
            <mask id="b" fill="#fff">
                <use xlink:href="#a"/>
            </mask>
            <path fill="#131B3C" d="M165.503 8.075h1.68V.033h-1.68zM172.21 4.66c-.099-.75-.541-1.256-1.248-1.256-.696 0-1.15.496-1.282 1.256h2.53zm-4.177.496v-.023c0-1.685 1.205-3.073 2.929-3.073 1.978 0 2.884 1.531 2.884 3.206 0 .132-.01.286-.022.44h-4.122c.166.76.696 1.157 1.448 1.157.563 0 .972-.176 1.436-.606l.962.848c-.553.683-1.349 1.102-2.42 1.102-1.78 0-3.095-1.245-3.095-3.051zM174.654 2.17h1.68v1.19c.342-.816.894-1.344 1.889-1.3v1.752h-.089c-1.116 0-1.8.671-1.8 2.082v2.181h-1.68V2.17zM182.058 5.993v-.298a2.608 2.608 0 0 0-1.072-.22c-.718 0-1.16.286-1.16.815v.022c0 .452.376.716.917.716.785 0 1.315-.43 1.315-1.035m-3.857.385v-.022c0-1.289.984-1.884 2.387-1.884.597 0 1.028.1 1.448.243v-.1c0-.694-.43-1.08-1.27-1.08-.642 0-1.095.122-1.636.32l-.42-1.278c.652-.286 1.293-.473 2.298-.473.917 0 1.58.242 2 .66.442.441.641 1.091.641 1.885v3.426h-1.624v-.639c-.409.452-.972.75-1.79.75-1.116 0-2.034-.64-2.034-1.808M184.877 6.4V3.602h-.707V2.17h.707V.66h1.68v1.51h1.392v1.432h-1.392v2.523c0 .386.165.573.541.573.31 0 .586-.077.83-.21v1.345c-.355.209-.763.341-1.327.341-1.028 0-1.724-.407-1.724-1.774M188.822 8.075h1.68V2.17h-1.68v5.905zm-.044-6.555h1.768V.033h-1.768V1.52zM191.64 2.17h1.68v.837c.387-.496.884-.947 1.735-.947 1.271 0 2.012.837 2.012 2.192v3.823h-1.68V4.781c0-.793-.376-1.2-1.017-1.2-.64 0-1.05.407-1.05 1.2v3.294h-1.68V2.17zM202.383 4.836v-.022c0-.804-.63-1.366-1.448-1.366s-1.437.562-1.437 1.366v.022c0 .815.62 1.366 1.437 1.366.818 0 1.448-.562 1.448-1.366m-4.266 4.407l.575-1.256c.607.341 1.215.54 2 .54 1.15 0 1.69-.551 1.69-1.609v-.286c-.497.595-1.038.958-1.933.958-1.381 0-2.63-1.002-2.63-2.754v-.022c0-1.763 1.27-2.754 2.63-2.754.917 0 1.459.385 1.912.88v-.77h1.68v4.572c0 1.058-.255 1.829-.752 2.325-.553.55-1.404.793-2.553.793-.961 0-1.867-.22-2.619-.617M143.277 14.756c.828 0 1.304-.44 1.304-1.09v-.023c0-.727-.509-1.101-1.338-1.101h-1.69v2.214h1.724zm-3.426-3.746h3.536c.984 0 1.746.276 2.254.783.431.43.663 1.035.663 1.762v.022c0 1.245-.674 2.028-1.657 2.391l1.89 2.754h-1.99l-1.657-2.468h-1.338v2.468h-1.701V11.01zM151.002 15.307c-.1-.749-.542-1.256-1.249-1.256-.696 0-1.15.496-1.282 1.256h2.53zm-4.177.496v-.022c0-1.686 1.204-3.074 2.928-3.074 1.978 0 2.884 1.531 2.884 3.206 0 .132-.01.286-.022.44h-4.122c.166.76.697 1.157 1.448 1.157.564 0 .972-.176 1.437-.606l.961.849c-.552.683-1.348 1.101-2.42 1.101-1.78 0-3.094-1.244-3.094-3.051zM152.98 17.94l.719-1.102c.64.463 1.315.705 1.868.705.486 0 .707-.176.707-.44v-.022c0-.364-.575-.485-1.227-.683-.829-.243-1.768-.628-1.768-1.774v-.022c0-1.2.973-1.873 2.166-1.873.752 0 1.57.253 2.21.683l-.64 1.157c-.587-.342-1.172-.55-1.603-.55-.409 0-.619.175-.619.407v.022c0 .33.564.484 1.205.705.828.275 1.79.672 1.79 1.751v.023c0 1.31-.984 1.905-2.266 1.905a4.157 4.157 0 0 1-2.541-.892M162.44 15.307c-.099-.749-.54-1.256-1.248-1.256-.696 0-1.15.496-1.282 1.256h2.53zm-4.176.496v-.022c0-1.686 1.204-3.074 2.928-3.074 1.978 0 2.884 1.531 2.884 3.206 0 .132-.01.286-.022.44h-4.122c.166.76.696 1.157 1.448 1.157.563 0 .972-.176 1.436-.606l.962.849c-.553.683-1.348 1.101-2.42 1.101-1.78 0-3.094-1.244-3.094-3.051zM168.387 16.64v-.297a2.608 2.608 0 0 0-1.072-.22c-.718 0-1.16.286-1.16.814v.023c0 .451.375.716.917.716.784 0 1.315-.43 1.315-1.036m-3.857.386v-.022c0-1.29.984-1.884 2.387-1.884.597 0 1.028.099 1.448.242v-.099c0-.694-.431-1.08-1.271-1.08-.641 0-1.094.121-1.636.32l-.42-1.278c.652-.287 1.293-.474 2.299-.474.917 0 1.58.243 2 .661.442.44.641 1.09.641 1.884v3.426h-1.624v-.639c-.41.452-.973.75-1.79.75-1.117 0-2.034-.64-2.034-1.807M170.984 12.817h1.68v1.19c.343-.815.895-1.344 1.89-1.3v1.752h-.089c-1.116 0-1.801.672-1.801 2.082v2.181h-1.68v-5.905zM174.709 15.803v-.022c0-1.686 1.293-3.074 3.105-3.074 1.116 0 1.812.375 2.365.992l-1.028 1.101c-.375-.396-.751-.65-1.348-.65-.84 0-1.436.738-1.436 1.609v.022c0 .903.585 1.63 1.503 1.63.563 0 .95-.242 1.359-.628l.983.992c-.574.628-1.237 1.08-2.42 1.08-1.779 0-3.083-1.366-3.083-3.052M180.865 10.68h1.68v2.975c.386-.496.884-.948 1.735-.948 1.27 0 2.01.837 2.01 2.192v3.823h-1.679v-3.294c0-.793-.376-1.2-1.017-1.2-.64 0-1.05.407-1.05 1.2v3.294h-1.68V10.68zM190.259 18.722h1.68v-5.905h-1.68v5.905zm-.044-6.555h1.768V10.68h-1.768v1.487zM193.077 12.817h1.68v.837c.387-.495.884-.947 1.735-.947 1.27 0 2.011.837 2.011 2.192v3.823h-1.68v-3.294c0-.793-.375-1.2-1.016-1.2s-1.05.407-1.05 1.2v3.294h-1.68v-5.905zM139.508 25.536v-.022c0-2.193 1.713-3.988 4.056-3.988 1.392 0 2.232.374 3.039 1.057l-1.072 1.29c-.597-.497-1.127-.783-2.022-.783-1.238 0-2.222 1.09-2.222 2.402v.022c0 1.41.973 2.445 2.343 2.445.619 0 1.172-.154 1.602-.462v-1.102h-1.712V24.93h3.359v3.349c-.796.672-1.89 1.223-3.304 1.223-2.41 0-4.067-1.686-4.067-3.966M151.787 25.954c-.1-.749-.542-1.256-1.25-1.256-.695 0-1.148.496-1.281 1.256h2.53zm-4.177.496v-.022c0-1.686 1.204-3.074 2.928-3.074 1.978 0 2.884 1.532 2.884 3.206 0 .132-.01.287-.022.44h-4.122c.166.761.696 1.158 1.448 1.158.563 0 .972-.177 1.436-.606l.962.848c-.553.683-1.349 1.102-2.42 1.102-1.78 0-3.094-1.245-3.094-3.052zM154.23 23.464h1.68v.838c.386-.496.883-.948 1.734-.948 1.271 0 2.012.838 2.012 2.193v3.823h-1.68v-3.295c0-.793-.376-1.2-1.017-1.2-.64 0-1.05.407-1.05 1.2v3.295h-1.68v-5.906zM165.137 26.45v-.022c0-.87-.63-1.63-1.558-1.63-.961 0-1.536.738-1.536 1.608v.022c0 .87.63 1.63 1.558 1.63.962 0 1.536-.738 1.536-1.608m-4.751 0v-.022c0-1.697 1.37-3.074 3.215-3.074 1.835 0 3.194 1.355 3.194 3.052v.022c0 1.697-1.37 3.074-3.216 3.074-1.834 0-3.193-1.355-3.193-3.052M167.57 23.464h1.679v.838c.387-.496.895-.948 1.746-.948.774 0 1.36.342 1.669.937.519-.606 1.138-.937 1.945-.937 1.248 0 2 .75 2 2.17v3.846h-1.68v-3.295c0-.793-.353-1.2-.983-1.2s-1.017.407-1.017 1.2v3.295h-1.68v-3.295c0-.793-.353-1.2-.983-1.2s-1.017.407-1.017 1.2v3.295h-1.68v-5.906zM177.704 29.37h1.68v-5.906h-1.68v5.906zm-.044-6.556h1.768v-1.487h-1.768v1.487zM180.235 26.45v-.022c0-1.686 1.293-3.074 3.105-3.074 1.116 0 1.813.375 2.365.992l-1.028 1.102c-.375-.397-.751-.65-1.348-.65-.84 0-1.436.738-1.436 1.608v.022c0 .903.585 1.63 1.503 1.63.563 0 .95-.242 1.359-.627l.983.991c-.574.628-1.237 1.08-2.42 1.08-1.779 0-3.083-1.366-3.083-3.052M195.541 25.536v-.022c0-1.322-.972-2.424-2.343-2.424-1.37 0-2.32 1.08-2.32 2.402v.022c0 1.322.972 2.423 2.343 2.423 1.37 0 2.32-1.08 2.32-2.401m-6.443 0v-.022c0-2.193 1.736-3.988 4.123-3.988 2.387 0 4.1 1.773 4.1 3.966v.022c0 2.192-1.735 3.988-4.123 3.988-2.386 0-4.1-1.774-4.1-3.966M198.217 23.464h1.68v.838c.386-.496.883-.948 1.734-.948 1.271 0 2.011.838 2.011 2.193v3.823h-1.68v-3.295c0-.793-.375-1.2-1.016-1.2s-1.05.407-1.05 1.2v3.295h-1.68v-5.906zM204.373 26.45v-.022c0-1.686 1.293-3.074 3.105-3.074 1.116 0 1.812.375 2.365.992l-1.028 1.102c-.376-.397-.751-.65-1.348-.65-.84 0-1.437.738-1.437 1.608v.022c0 .903.586 1.63 1.503 1.63.564 0 .95-.242 1.36-.627l.983.991c-.575.628-1.238 1.08-2.42 1.08-1.78 0-3.083-1.366-3.083-3.052M214.827 26.45v-.022c0-.87-.63-1.63-1.558-1.63-.961 0-1.536.738-1.536 1.608v.022c0 .87.63 1.63 1.558 1.63.962 0 1.536-.738 1.536-1.608m-4.751 0v-.022c0-1.697 1.37-3.074 3.215-3.074 1.835 0 3.194 1.355 3.194 3.052v.022c0 1.697-1.37 3.074-3.216 3.074-1.834 0-3.193-1.355-3.193-3.052M217.337 29.37h1.68v-8.043h-1.68zM224.62 26.45v-.022c0-.87-.63-1.63-1.559-1.63-.961 0-1.536.738-1.536 1.608v.022c0 .87.63 1.63 1.558 1.63.962 0 1.536-.738 1.536-1.608m-4.752 0v-.022c0-1.697 1.37-3.074 3.216-3.074 1.835 0 3.194 1.355 3.194 3.052v.022c0 1.697-1.37 3.074-3.216 3.074-1.834 0-3.194-1.355-3.194-3.052M231.35 26.13v-.021c0-.805-.63-1.367-1.448-1.367s-1.436.562-1.436 1.367v.022c0 .815.618 1.366 1.436 1.366s1.448-.562 1.448-1.366m-4.266 4.407l.575-1.256c.608.341 1.215.54 2 .54 1.15 0 1.69-.551 1.69-1.61v-.286c-.497.595-1.038.959-1.933.959-1.381 0-2.63-1.003-2.63-2.754v-.022c0-1.763 1.27-2.755 2.63-2.755.917 0 1.459.386 1.912.882v-.771h1.68v4.571c0 1.058-.255 1.83-.752 2.325-.553.551-1.404.793-2.553.793-.96 0-1.867-.22-2.619-.616M233.992 30.758l.563-1.212c.221.132.498.231.719.231.287 0 .442-.088.585-.385l-2.32-5.928h1.779l1.348 4.022 1.293-4.022h1.746l-2.277 6.049c-.453 1.2-.939 1.652-1.945 1.652-.607 0-1.06-.154-1.491-.407M131.89 23.636a14.803 14.803 0 0 0 2.286-4.698h-13.54a82.015 82.015 0 0 1-.424 4.698h11.678zM105.44 18.938a14.8 14.8 0 0 0 2.286 4.698h2.957a15.276 15.276 0 0 1-2.184-4.698h-3.06zM120.72 17.251h13.826a14.926 14.926 0 0 0 0-4.698h-13.77a82.463 82.463 0 0 1-.056 4.698M108.157 12.553h-3.088a14.925 14.925 0 0 0 0 4.698h3.079a15.442 15.442 0 0 1-.184-2.319c0-.81.072-1.603.193-2.38M130.459 4.48A14.901 14.901 0 0 0 119.808.024c-.067 0-.132.004-.198.005.253 1.48.46 2.965.633 4.453h10.216zM119.534.03a14.898 14.898 0 0 0-10.377 4.45h2.914a15.444 15.444 0 0 1 7.463-4.45M107.726 6.167a14.807 14.807 0 0 0-2.287 4.7h3.076a15.283 15.283 0 0 1 2.207-4.7h-2.996zM134.176 10.866a14.802 14.802 0 0 0-2.286-4.699h-11.47a82.37 82.37 0 0 1 .312 4.7h13.444zM112.02 25.323h-2.863a14.902 14.902 0 0 0 10.65 4.457c4.172 0 7.943-1.706 10.652-4.457h-10.466a82.052 82.052 0 0 1-.74 4.435 15.452 15.452 0 0 1-7.232-4.435" mask="url(#b)"/>
            <path fill="#37B34A" d="M119.607.008c-.025.007-.049.016-.073.022l.076-.001c0-.007-.002-.014-.003-.02" mask="url(#b)"/>
            <path fill="#3075BA" d="M110.683 23.636h9.53c.185-1.562.327-3.13.423-4.698h-12.137a15.272 15.272 0 0 0 2.184 4.698M120.776 12.553h-12.62c-.12.776-.192 1.569-.192 2.379 0 .79.069 1.562.184 2.32h12.572c.063-1.566.082-3.133.056-4.7M119.61.028l-.076.002a15.442 15.442 0 0 0-7.463 4.45h8.172a82.611 82.611 0 0 0-.633-4.452M120.42 6.167h-9.698a15.284 15.284 0 0 0-2.207 4.7h12.217a82.541 82.541 0 0 0-.312-4.7M119.254 29.758c.289-1.473.532-2.952.74-4.435h-7.973a15.454 15.454 0 0 0 7.233 4.435" mask="url(#b)"/>
            <path fill="#FFF" d="M127.567 14.902c0 4.272-3.474 7.735-7.76 7.735-4.285 0-7.758-3.463-7.758-7.735s3.473-7.735 7.759-7.735c4.285 0 7.759 3.463 7.759 7.735" mask="url(#b)"/>
            <path fill="#DD1C4D" d="M126.966 14.939c0 3.912-3.181 7.083-7.106 7.083-3.924 0-7.105-3.171-7.105-7.083 0-3.913 3.181-7.084 7.105-7.084 3.925 0 7.106 3.171 7.106 7.084" mask="url(#b)"/>
            <path fill="#FFF" d="M119.86 8.759c-3.418 0-6.198 2.772-6.198 6.18 0 3.407 2.78 6.18 6.198 6.18 3.418 0 6.199-2.773 6.199-6.18 0-3.408-2.78-6.18-6.199-6.18m0 14.167c-4.418 0-8.012-3.583-8.012-7.987 0-4.405 3.594-7.988 8.012-7.988 4.418 0 8.012 3.583 8.012 7.988 0 4.404-3.594 7.987-8.012 7.987" mask="url(#b)"/>
            <path fill="#FFF" d="M119.955 8.734c-3.41 0-6.186 2.767-6.186 6.167s2.775 6.167 6.186 6.167 6.186-2.766 6.186-6.167c0-3.4-2.775-6.167-6.186-6.167m0 12.937c-3.744 0-6.79-3.037-6.79-6.77 0-3.733 3.046-6.77 6.79-6.77 3.745 0 6.79 3.037 6.79 6.77 0 3.733-3.045 6.77-6.79 6.77" mask="url(#b)"/>
            <path fill="#FFF" d="M119.955 8.734c-1.754 0-3.236 2.824-3.236 6.167s1.482 6.167 3.236 6.167c1.755 0 3.237-2.824 3.237-6.167s-1.482-6.167-3.237-6.167m0 12.937c-2.154 0-3.841-2.973-3.841-6.77 0-3.796 1.687-6.77 3.841-6.77s3.842 2.974 3.842 6.77c0 3.797-1.688 6.77-3.842 6.77" mask="url(#b)"/>
            <path fill="#FFF" d="M119.653 21.37h.605V8.433h-.605z" mask="url(#b)"/>
            <path fill="#FFF" d="M113.455 15.203h12.976V14.6h-12.976zM114.303 11.822h11.207v-.603h-11.207zM114.376 18.584h11.134v-.603h-11.134z" mask="url(#b)"/>
            <path fill="#DD1C4D" d="M125.619 38.654c-1.476.013-2.961-.122-4.399-.49a14.678 14.678 0 0 1-4.087-1.716c-2.558-1.532-4.59-3.73-6.934-5.447-1.166-.87-2.428-1.596-3.772-2.119-1.343-.526-2.77-.812-4.209-.93-2.877-.215-5.84.137-8.414 1.397-.32.16-.641.317-.948.502-.315.17-.613.371-.915.564-.595.403-1.175.83-1.733 1.293-1.124.914-2.186 1.925-3.313 2.89-.56.486-1.145.95-1.746 1.4-.61.437-1.237.86-1.903 1.223-1.32.746-2.775 1.266-4.26 1.578-1.49.31-3.007.404-4.515.353-1.508-.058-3.032-.271-4.488-.747a15.76 15.76 0 0 1-4.09-2.02c-1.258-.848-2.39-1.83-3.501-2.79-1.111-.958-2.207-1.902-3.386-2.692a14.47 14.47 0 0 0-3.766-1.854c-1.33-.432-2.735-.624-4.147-.673-1.415-.044-2.839.051-4.203.342-1.365.287-2.682.754-3.896 1.438l-.454.259c-.15.089-.295.187-.443.28-.299.182-.581.396-.87.595-.568.423-1.124.866-1.674 1.334-1.105.928-2.178 1.941-3.36 2.88-.585.475-1.207.92-1.847 1.342-.326.203-.648.412-.99.594-.333.194-.684.36-1.032.53-1.406.656-2.924 1.063-4.445 1.268-1.525.2-3.05.215-4.57.063-1.518-.159-3.035-.5-4.453-1.094-.352-.154-.707-.3-1.045-.482-.17-.088-.344-.168-.508-.264l-.495-.289a18.859 18.859 0 0 1-1.865-1.295c-2.377-1.847-4.304-4.074-6.73-5.638a14.243 14.243 0 0 0-3.902-1.822c-1.39-.41-2.846-.609-4.31-.667L0 27.592l1.11-.011 1.11.05c.369.042.74.08 1.108.132l.55.1c.183.033.368.063.548.112 1.453.339 2.873.888 4.167 1.651l.484.288.47.308c.315.203.613.428.917.645.598.446 1.178.91 1.747 1.382 1.138.94 2.232 1.908 3.4 2.74 1.161.845 2.4 1.541 3.713 2.044 1.311.505 2.703.775 4.111.881 1.409.1 2.844.064 4.23-.15 1.387-.216 2.734-.608 3.982-1.222.31-.155.623-.306.922-.487.307-.166.599-.36.894-.549.582-.394 1.152-.81 1.703-1.268 1.111-.899 2.18-1.9 3.32-2.866a28.44 28.44 0 0 1 1.78-1.4c.318-.215.625-.442.956-.64.164-.1.324-.206.491-.303l.506-.282c1.356-.747 2.848-1.26 4.361-1.561 1.52-.293 3.055-.364 4.576-.288 1.523.08 3.058.321 4.52.82a15.855 15.855 0 0 1 4.086 2.088c1.251.868 2.37 1.865 3.467 2.842 1.096.973 2.179 1.934 3.35 2.745a14.587 14.587 0 0 0 3.761 1.924c1.336.458 2.752.677 4.178.75 1.428.069 2.87-.002 4.264-.274 1.394-.274 2.748-.736 3.998-1.42.63-.331 1.228-.725 1.818-1.134a29.753 29.753 0 0 0 1.708-1.333c1.118-.93 2.199-1.933 3.367-2.858.579-.468 1.19-.904 1.816-1.317.32-.198.635-.403.969-.58.325-.19.667-.351 1.007-.515 1.368-.642 2.844-1.04 4.33-1.242 1.49-.198 2.991-.21 4.48-.07 1.488.148 2.97.473 4.357 1.045 1.388.568 2.68 1.346 3.852 2.254 2.36 1.799 4.333 4.01 6.815 5.556a14.394 14.394 0 0 0 3.981 1.757c1.408.387 2.874.547 4.338.56v.158z" mask="url(#b)"/>
            <path fill="#3075BA" d="M150.649 39.956c-1.475.013-2.96-.122-4.399-.49a14.684 14.684 0 0 1-4.087-1.717c-2.558-1.532-4.589-3.728-6.934-5.446-1.166-.87-2.428-1.596-3.771-2.12-1.344-.525-2.771-.811-4.21-.928-2.877-.216-5.839.136-8.414 1.396-.32.16-.641.317-.948.502-.314.17-.613.37-.915.564-.594.403-1.175.829-1.733 1.293-1.124.913-2.185 1.925-3.313 2.89a30.53 30.53 0 0 1-1.745 1.4c-.611.437-1.238.86-1.904 1.223-1.32.746-2.775 1.266-4.26 1.578-1.49.31-3.007.404-4.515.353-1.508-.058-3.032-.272-4.488-.748a15.774 15.774 0 0 1-4.09-2.02c-1.258-.848-2.39-1.829-3.5-2.789-1.111-.958-2.208-1.902-3.387-2.692a14.475 14.475 0 0 0-3.766-1.854c-1.33-.432-2.734-.624-4.146-.673-1.416-.044-2.84.05-4.203.342-1.366.286-2.683.753-3.896 1.438l-.454.259c-.15.089-.296.187-.444.28-.298.181-.58.396-.87.595-.568.423-1.123.866-1.674 1.334-1.104.928-2.178 1.94-3.36 2.88-.585.474-1.207.92-1.846 1.342-.327.203-.649.412-.99.593-.334.195-.684.361-1.033.53-1.406.656-2.924 1.064-4.445 1.27-1.525.198-3.05.213-4.57.062-1.517-.159-3.035-.5-4.453-1.094-.351-.155-.707-.3-1.044-.482-.17-.088-.344-.169-.51-.265l-.494-.288a18.857 18.857 0 0 1-1.865-1.295c-2.377-1.847-4.304-4.074-6.73-5.638a14.244 14.244 0 0 0-3.902-1.822c-1.39-.41-2.846-.609-4.31-.667h-.003a.08.08 0 0 1-.076-.082.08.08 0 0 1 .078-.076l1.11-.012 1.11.051c.37.042.74.08 1.108.132l.55.1c.184.033.368.063.549.112 1.452.339 2.873.888 4.166 1.651l.484.287.47.309c.315.203.613.428.918.645.597.446 1.178.91 1.746 1.382 1.139.94 2.232 1.908 3.401 2.74 1.16.845 2.4 1.54 3.712 2.044 1.311.505 2.704.775 4.111.88 1.41.1 2.844.065 4.23-.148 1.387-.217 2.734-.609 3.982-1.223.31-.155.624-.306.923-.487.306-.166.598-.361.893-.55a21.69 21.69 0 0 0 1.703-1.267c1.111-.899 2.18-1.9 3.32-2.866.566-.488 1.167-.951 1.781-1.401.318-.214.624-.44.955-.639.164-.1.325-.206.492-.303l.506-.282c1.356-.747 2.847-1.261 4.36-1.561 1.52-.293 3.055-.364 4.577-.289 1.522.08 3.057.322 4.52.821a15.854 15.854 0 0 1 4.086 2.088c1.25.868 2.369 1.865 3.466 2.841 1.097.974 2.179 1.935 3.35 2.746a14.572 14.572 0 0 0 3.761 1.924c1.336.457 2.752.677 4.178.75 1.429.069 2.87-.002 4.265-.274 1.393-.274 2.748-.736 3.997-1.42.63-.332 1.228-.725 1.818-1.134a29.668 29.668 0 0 0 1.708-1.334c1.118-.93 2.199-1.932 3.367-2.857.579-.468 1.19-.904 1.816-1.317.32-.199.635-.403.97-.58.325-.19.666-.351 1.006-.515 1.369-.642 2.845-1.04 4.331-1.242 1.49-.198 2.99-.21 4.48-.07 1.487.148 2.97.472 4.356 1.045 1.388.568 2.68 1.346 3.853 2.253 2.36 1.8 4.332 4.012 6.814 5.557a14.4 14.4 0 0 0 3.982 1.757c1.407.387 2.873.547 4.338.56a.079.079 0 0 1 0 .158" mask="url(#b)"/>
            <path fill="#131B3C" d="M91.279 29.922l.079-.001c.093-.064.187-.128.282-.19.32-.198.635-.403.969-.58.325-.19.667-.351 1.006-.515 1.369-.642 2.845-1.04 4.331-1.242.977-.13 1.958-.178 2.938-.158a20.007 20.007 0 0 0 2.507-1.812l-.014-12.283-12.32.014.006 5.374 6.282-.007.005 4.04c-1.58 1.133-3.605 1.7-5.875 1.704-5.025.006-8.596-3.788-8.602-8.96v-.081c-.006-4.808 3.596-8.812 8.135-8.817 3.283-.004 5.23 1.044 7.42 2.86l3.926-4.732C99.393 2.035 96.31.664 91.204.67c-8.592.01-14.866 6.603-14.857 14.643v.081c.01 8.364 6.097 14.538 14.932 14.528M63.992 6.805c3.04-.004 4.906 1.368 4.909 4.034v.08c.003 2.385-1.738 4.003-4.778 4.006l-6.322.008-.009-8.121 6.2-.007zm-8.165 20.914c.682.23 1.348.51 1.99.832l-.01-8.123 4.904-.006 6.046 8.977a15.756 15.756 0 0 1 3.004-.911c1.146-.221 2.3-.316 3.452-.317l-6.059-8.807c3.605-1.338 6.074-4.21 6.07-8.775v-.08c-.004-2.667-.858-4.888-2.44-6.462-1.867-1.857-4.664-2.863-8.271-2.86l-12.969.016.03 25.712c1.435.094 2.876.334 4.253.804zM36.95 8.496l3.78 9.168-7.538.008 3.758-9.176zm-8.538 20.948a18.908 18.908 0 0 0-3.23-.392h-.003a.079.079 0 0 1 .002-.158l1.11-.012 1.11.05c.369.043.74.082 1.108.133l.053.01 2.406-5.906 11.997-.013 1.86 4.532a16.182 16.182 0 0 1 1.906-.502c1.41-.272 2.833-.35 4.246-.3L39.9 1.016l-5.755.008L22.02 29.524l6.362-.008.03-.072zM20.6 51.093h1.739v-7.875H20.6zM23.681 45.063h1.716v.855c.395-.507.903-.968 1.772-.968 1.297 0 2.053.855 2.053 2.239v3.904h-1.715v-3.364c0-.81-.384-1.226-1.038-1.226-.655 0-1.072.416-1.072 1.226v3.364H23.68v-6.03zM30.542 49.383v-2.858h-.722v-1.462h.722v-1.541h1.716v1.54h1.421v1.463h-1.421v2.577c0 .393.169.585.553.585.315 0 .598-.08.846-.214v1.372c-.361.214-.779.349-1.354.349-1.05 0-1.76-.416-1.76-1.811M38.295 47.605c-.102-.765-.553-1.282-1.275-1.282-.711 0-1.174.506-1.31 1.282h2.585zm-4.266.507v-.023c0-1.721 1.23-3.139 2.99-3.139 2.02 0 2.946 1.564 2.946 3.274 0 .135-.011.292-.022.45h-4.21c.17.776.711 1.181 1.478 1.181.576 0 .994-.18 1.467-.619l.982.867c-.564.697-1.377 1.125-2.47 1.125-1.818 0-3.16-1.272-3.16-3.116zM40.788 45.063h1.716v1.215c.35-.833.914-1.373 1.93-1.328v1.789h-.09c-1.14 0-1.84.686-1.84 2.126v2.228h-1.716v-6.03zM45.054 45.063h1.716v.855c.394-.507.902-.968 1.771-.968 1.298 0 2.054.855 2.054 2.239v3.904H48.88v-3.364c0-.81-.384-1.226-1.039-1.226-.654 0-1.071.416-1.071 1.226v3.364h-1.716v-6.03zM55.21 48.966v-.303a2.666 2.666 0 0 0-1.095-.225c-.733 0-1.185.292-1.185.832v.023c0 .46.384.73.937.73.801 0 1.343-.438 1.343-1.057m-3.938.394v-.022c0-1.317 1.004-1.924 2.437-1.924.61 0 1.05.101 1.479.247v-.1c0-.71-.44-1.103-1.298-1.103-.655 0-1.118.123-1.67.326l-.43-1.305c.666-.292 1.321-.484 2.348-.484.936 0 1.614.248 2.042.675.452.45.655 1.114.655 1.924v3.499h-1.659v-.653c-.417.461-.993.765-1.828.765-1.14 0-2.076-.652-2.076-1.845M58.088 49.383v-2.858h-.722v-1.462h.722v-1.541h1.715v1.54h1.422v1.463h-1.422v2.577c0 .393.17.585.553.585.316 0 .598-.08.846-.214v1.372c-.36.214-.778.349-1.354.349-1.05 0-1.76-.416-1.76-1.811M62.116 51.093h1.716v-6.03h-1.716v6.03zm-.045-6.694h1.805V42.88h-1.805V44.4zM69.552 48.111v-.022c0-.889-.643-1.665-1.59-1.665-.982 0-1.57.754-1.57 1.642v.023c0 .889.644 1.665 1.592 1.665.982 0 1.568-.754 1.568-1.643m-4.852 0v-.022c0-1.733 1.4-3.139 3.284-3.139 1.873 0 3.261 1.384 3.261 3.116v.023c0 1.732-1.4 3.139-3.284 3.139-1.873 0-3.26-1.384-3.26-3.117M72.035 45.063h1.715v.855c.395-.507.903-.968 1.772-.968 1.298 0 2.054.855 2.054 2.239v3.904H75.86v-3.364c0-.81-.383-1.226-1.038-1.226-.654 0-1.072.416-1.072 1.226v3.364h-1.715v-6.03zM82.191 48.966v-.303a2.666 2.666 0 0 0-1.095-.225c-.733 0-1.184.292-1.184.832v.023c0 .46.383.73.936.73.801 0 1.343-.438 1.343-1.057m-3.938.394v-.022c0-1.317 1.004-1.924 2.437-1.924.61 0 1.05.101 1.479.247v-.1c0-.71-.44-1.103-1.298-1.103-.655 0-1.117.123-1.67.326l-.43-1.305c.667-.292 1.321-.484 2.348-.484.937 0 1.614.248 2.043.675.451.45.654 1.114.654 1.924v3.499h-1.659v-.653c-.417.461-.993.765-1.828.765-1.14 0-2.076-.652-2.076-1.845M84.922 51.093h1.715V42.88h-1.715zM90.564 47.178v-.023c0-2.239 1.692-4.072 4.119-4.072 1.49 0 2.38.495 3.114 1.215l-1.106 1.27c-.61-.55-1.23-.888-2.02-.888-1.331 0-2.29 1.103-2.29 2.453v.022c0 1.35.936 2.475 2.29 2.475.903 0 1.456-.36 2.077-.922l1.106 1.113c-.813.867-1.716 1.407-3.24 1.407-2.324 0-4.05-1.79-4.05-4.05M102.187 48.966v-.303a2.666 2.666 0 0 0-1.095-.225c-.733 0-1.185.292-1.185.832v.023c0 .46.384.73.937.73.801 0 1.343-.438 1.343-1.057m-3.939.394v-.022c0-1.317 1.005-1.924 2.438-1.924.61 0 1.05.101 1.478.247v-.1c0-.71-.44-1.103-1.298-1.103-.654 0-1.117.123-1.67.326l-.428-1.305c.665-.292 1.32-.484 2.347-.484.936 0 1.613.248 2.042.675.452.45.655 1.114.655 1.924v3.499h-1.66v-.653c-.416.461-.992.765-1.827.765-1.14 0-2.077-.652-2.077-1.845M104.838 45.063h1.716v.855c.395-.507.903-.968 1.772-.968 1.297 0 2.053.855 2.053 2.239v3.904h-1.715v-3.364c0-.81-.384-1.226-1.038-1.226-.655 0-1.072.416-1.072 1.226v3.364h-1.716v-6.03zM111.124 48.111v-.022c0-1.721 1.32-3.139 3.17-3.139 1.14 0 1.851.383 2.416 1.013l-1.05 1.125c-.384-.405-.767-.664-1.376-.664-.858 0-1.468.754-1.468 1.642v.023c0 .922.598 1.665 1.535 1.665.576 0 .97-.248 1.388-.641l1.005 1.012c-.587.641-1.264 1.103-2.472 1.103-1.817 0-3.148-1.395-3.148-3.117M121.212 47.605c-.101-.765-.553-1.282-1.275-1.282-.71 0-1.173.506-1.309 1.282h2.584zm-4.266.507v-.023c0-1.721 1.23-3.139 2.991-3.139 2.02 0 2.945 1.564 2.945 3.274 0 .135-.011.292-.022.45h-4.21c.17.776.711 1.181 1.479 1.181.575 0 .993-.18 1.467-.619l.982.867c-.565.697-1.377 1.125-2.472 1.125-1.817 0-3.16-1.272-3.16-3.116zM123.706 45.063h1.715v1.215c.35-.833.914-1.373 1.93-1.328v1.789h-.09c-1.14 0-1.84.686-1.84 2.126v2.228h-1.715v-6.03zM130.736 47.178v-.023c0-2.239 1.75-4.072 4.142-4.072 1.421 0 2.279.382 3.103 1.08l-1.095 1.316c-.61-.506-1.15-.799-2.065-.799-1.264 0-2.268 1.114-2.268 2.453v.022c0 1.44.993 2.498 2.392 2.498.632 0 1.196-.158 1.636-.473v-1.125h-1.749V46.56h3.43v3.42c-.812.686-1.929 1.249-3.373 1.249-2.46 0-4.153-1.721-4.153-4.05M143.273 47.605c-.101-.765-.553-1.282-1.275-1.282-.71 0-1.173.506-1.309 1.282h2.584zm-4.265.507v-.023c0-1.721 1.23-3.139 2.99-3.139 2.02 0 2.945 1.564 2.945 3.274 0 .135-.01.292-.022.45h-4.21c.17.776.712 1.181 1.479 1.181.575 0 .993-.18 1.467-.619l.982.867c-.564.697-1.377 1.125-2.471 1.125-1.817 0-3.16-1.272-3.16-3.116zM145.767 45.063h1.716v.855c.395-.507.902-.968 1.771-.968 1.298 0 2.054.855 2.054 2.239v3.904h-1.715v-3.364c0-.81-.384-1.226-1.039-1.226-.654 0-1.071.416-1.071 1.226v3.364h-1.716v-6.03zM156.905 48.111v-.022c0-.889-.643-1.665-1.591-1.665-.982 0-1.569.754-1.569 1.642v.023c0 .889.644 1.665 1.591 1.665.982 0 1.569-.754 1.569-1.643m-4.852 0v-.022c0-1.733 1.399-3.139 3.283-3.139 1.874 0 3.262 1.384 3.262 3.116v.023c0 1.732-1.4 3.139-3.284 3.139-1.873 0-3.261-1.384-3.261-3.117M159.387 45.063h1.716v.855c.395-.507.914-.968 1.783-.968.79 0 1.388.349 1.704.957.53-.62 1.162-.957 1.986-.957 1.275 0 2.042.765 2.042 2.217v3.926h-1.715v-3.364c0-.81-.361-1.226-1.004-1.226-.644 0-1.039.416-1.039 1.226v3.364h-1.715v-3.364c0-.81-.36-1.226-1.004-1.226-.643 0-1.038.416-1.038 1.226v3.364h-1.716v-6.03zM173.629 47.605c-.102-.765-.553-1.282-1.275-1.282-.711 0-1.174.506-1.31 1.282h2.585zm-4.266.507v-.023c0-1.721 1.23-3.139 2.99-3.139 2.02 0 2.946 1.564 2.946 3.274 0 .135-.012.292-.023.45h-4.209c.17.776.711 1.181 1.478 1.181.576 0 .994-.18 1.467-.619l.982.867c-.564.697-1.377 1.125-2.471 1.125-1.817 0-3.16-1.272-3.16-3.116zM178.887 47.178v-.023c0-2.239 1.693-4.072 4.119-4.072 1.49 0 2.381.495 3.114 1.215l-1.105 1.27c-.61-.55-1.23-.888-2.02-.888-1.332 0-2.291 1.103-2.291 2.453v.022c0 1.35.936 2.475 2.29 2.475.903 0 1.456-.36 2.077-.922l1.106 1.113c-.812.867-1.715 1.407-3.239 1.407-2.324 0-4.051-1.79-4.051-4.05M191.379 48.111v-.022c0-.889-.643-1.665-1.591-1.665-.982 0-1.569.754-1.569 1.642v.023c0 .889.644 1.665 1.591 1.665.982 0 1.569-.754 1.569-1.643m-4.852 0v-.022c0-1.733 1.399-3.139 3.283-3.139 1.874 0 3.262 1.384 3.262 3.116v.023c0 1.732-1.4 3.139-3.284 3.139-1.873 0-3.261-1.384-3.261-3.117M193.861 45.063h1.716v.855c.395-.507.902-.968 1.772-.968 1.297 0 2.053.855 2.053 2.239v3.904h-1.715v-3.364c0-.81-.384-1.226-1.038-1.226-.655 0-1.072.416-1.072 1.226v3.364h-1.716v-6.03zM199.966 50.294l.734-1.125c.654.473 1.343.72 1.907.72.496 0 .722-.18.722-.45v-.022c0-.372-.587-.495-1.253-.698-.846-.247-1.805-.641-1.805-1.811v-.023c0-1.226.993-1.912 2.212-1.912.767 0 1.602.259 2.256.697l-.654 1.181c-.598-.348-1.196-.562-1.636-.562-.418 0-.632.18-.632.416v.023c0 .337.575.495 1.23.72.846.28 1.828.686 1.828 1.788v.023c0 1.339-1.004 1.946-2.313 1.946a4.245 4.245 0 0 1-2.596-.911M210.213 48.111v-.022c0-.889-.643-1.665-1.591-1.665-.982 0-1.569.754-1.569 1.642v.023c0 .889.644 1.665 1.591 1.665.982 0 1.569-.754 1.569-1.643m-4.852 0v-.022c0-1.733 1.399-3.139 3.283-3.139 1.874 0 3.262 1.384 3.262 3.116v.023c0 1.732-1.4 3.139-3.284 3.139-1.873 0-3.261-1.384-3.261-3.117M212.695 45.063h1.716v1.215c.35-.833.914-1.373 1.93-1.328v1.789h-.09c-1.14 0-1.84.686-1.84 2.126v2.228h-1.716v-6.03zM217.243 49.383v-2.858h-.722v-1.462h.722v-1.541h1.716v1.54h1.421v1.463h-1.421v2.577c0 .393.169.585.552.585.316 0 .599-.08.847-.214v1.372c-.361.214-.779.349-1.354.349-1.05 0-1.76-.416-1.76-1.811M221.272 51.093h1.715v-6.03h-1.715v6.03zm-.046-6.694h1.806V42.88h-1.806V44.4zM224.104 48.966v-3.903h1.715v3.363c0 .81.384 1.227 1.039 1.227.654 0 1.072-.417 1.072-1.227v-3.363h1.715v6.03h-1.715v-.855c-.395.506-.903.967-1.772.967-1.298 0-2.054-.855-2.054-2.239M230.728 45.063h1.715v.855c.395-.507.914-.968 1.783-.968.79 0 1.388.349 1.704.957.53-.62 1.162-.957 1.986-.957 1.275 0 2.043.765 2.043 2.217v3.926h-1.716v-3.364c0-.81-.36-1.226-1.004-1.226-.643 0-1.038.416-1.038 1.226v3.364h-1.715v-3.364c0-.81-.362-1.226-1.005-1.226-.643 0-1.038.416-1.038 1.226v3.364h-1.715v-6.03z" mask="url(#b)"/>
        </g>
    </g>
</svg>
