<?xml version="1.0" encoding="UTF-8"?>
<svg width="120px" height="36px" viewBox="0 0 120 36" version="1.1" xmlns="http://www.w3.org/2000/svg" xmlns:xlink="http://www.w3.org/1999/xlink">
    <!-- Generator: Sketch 54.1 (76490) - https://sketchapp.com -->
    <title>logos/primary stacked</title>
    <desc>Created with Sketch.</desc>
    <g id="logos/primary-stacked" stroke="none" stroke-width="1" fill="none" fill-rule="evenodd">
        <g id="Group-103" transform="translate(0.000000, -1.000000)">
            <g id="documentation" transform="translate(0.000000, 23.205357)" fill="#131B3C">
                <path d="M7.35916318,9.85498125 C8.0765272,9.10645446 8.43531381,8.06693661 8.43531381,6.73601696 C8.43531381,5.40550804 8.0765272,4.36599018 7.35916318,3.61725804 C6.64158996,2.86873125 5.64493724,2.49457054 4.3683682,2.49457054 L1.97882845,2.49457054 L1.97882845,10.9778741 L4.3683682,10.9778741 C5.64493724,10.9778741 6.64158996,10.6037134 7.35916318,9.85498125 M8.36732218,2.67754375 C9.36146444,3.63122232 9.85853556,4.98411518 9.85853556,6.73601696 C9.85853556,8.48853482 9.36146444,9.84142768 8.36732218,10.7949009 C7.37317992,11.7487848 5.99493724,12.2254187 4.23280335,12.2254187 L0.623389121,12.2254187 L0.623389121,1.24702589 L4.23280335,1.24702589 C5.99493724,1.24702589 7.37317992,1.72386518 8.36732218,2.67754375" id="Fill-78"></path>
                <path d="M13.7221548,5.73822768 C13.2361715,6.30378125 12.9934937,7.08003125 12.9934937,8.06697768 C12.9934937,9.05392411 13.2361715,9.83017411 13.7221548,10.3957277 C14.2077197,10.9612812 14.8798954,11.244058 15.738682,11.244058 C16.5970502,11.244058 17.2692259,10.9612812 17.755,10.3957277 C18.2407741,9.83017411 18.4838703,9.05392411 18.4838703,8.06697768 C18.4838703,7.08003125 18.2407741,6.30378125 17.755,5.73822768 C17.2692259,5.17267411 16.5970502,4.88989732 15.738682,4.88989732 C14.8798954,4.88989732 14.2077197,5.17267411 13.7221548,5.73822768 M18.7466318,4.88989732 C19.4750837,5.65505804 19.8393096,6.71408482 19.8393096,8.06697768 C19.8393096,9.42007589 19.4750837,10.4788973 18.7466318,11.244058 C18.0177615,12.0092187 17.0150418,12.3915937 15.738682,12.3915937 C14.4619038,12.3915937 13.4593933,12.0092187 12.7307322,11.244058 C12.0020711,10.4788973 11.6378452,9.42007589 11.6378452,8.06697768 C11.6378452,6.71408482 12.0020711,5.65505804 12.7307322,4.88989732 C13.4593933,4.12473661 14.4619038,3.74215625 15.738682,3.74215625 C17.0150418,3.74215625 18.0177615,4.12473661 18.7466318,4.88989732" id="Fill-80"></path>
                <path d="M27.7613598,4.31596518 C28.343159,4.69854554 28.7977615,5.24479554 29.1255858,5.95450982 L27.8377197,6.55333125 C27.4760042,5.45549196 26.7249582,4.90657232 25.583954,4.90657232 C24.7366736,4.90657232 24.0728661,5.18667946 23.5927406,5.74648304 C23.1124059,6.30649196 22.8726569,7.08007232 22.8726569,8.06701875 C22.8726569,9.05396518 23.1124059,9.82754554 23.5927406,10.3873491 C24.0728661,10.9475634 24.7366736,11.2272598 25.583954,11.2272598 C26.2389749,11.2272598 26.7672176,11.0804295 27.1682636,10.7865634 C27.5691004,10.4929027 27.8318619,10.0688402 27.9563389,9.51396518 L29.2103138,9.94665268 C28.9163808,10.7229027 28.4647071,11.3245991 27.8546653,11.7513312 C27.2446234,12.1782687 26.4990167,12.3916348 25.6178452,12.3916348 C24.3410669,12.3916348 23.3385565,12.0092598 22.6098954,11.2438937 C21.8814435,10.4789384 21.5170084,9.41991161 21.5170084,8.06701875 C21.5170084,6.71412589 21.8814435,5.65509911 22.6098954,4.88993839 C23.3385565,4.12457232 24.3410669,3.74219732 25.6178452,3.74219732 C26.4651255,3.74219732 27.1795607,3.93338482 27.7613598,4.31596518" id="Fill-82"></path>
                <path d="M38.5133473,3.90845446 L38.5133473,12.2254187 L37.3269456,12.2254187 L37.2424268,10.9612402 C36.677364,11.9151241 35.6664854,12.391758 34.2091632,12.391758 C33.2941004,12.391758 32.5455649,12.1422491 31.9637657,11.6432312 C31.3817573,11.1442134 31.0911715,10.3790527 31.0911715,9.34774911 L31.0911715,3.90845446 L32.4468201,3.90845446 L32.4468201,8.99843661 C32.4468201,9.80815982 32.6162762,10.3817223 32.9551883,10.7201509 C33.2941004,11.0583741 33.7909623,11.227383 34.4464017,11.227383 C35.2256904,11.227383 35.8723431,10.994508 36.386569,10.528758 C36.9005858,10.063008 37.1576987,9.36438304 37.1576987,8.43288304 L37.1576987,3.90845446 L38.5133473,3.90845446 Z" id="Fill-84"></path>
                <path d="M52.6712552,4.08313125 C53.1626778,4.31046161 53.560795,4.66264911 53.8658159,5.13948839 C54.1708368,5.61632768 54.3233473,6.20385446 54.3233473,6.90247946 L54.3233473,12.2253366 L52.9676987,12.2253366 L52.9676987,7.03555089 C52.9676987,6.31495268 52.7840167,5.77979196 52.4168619,5.43047946 C52.0497071,5.08116696 51.5668619,4.90661339 50.9681172,4.90661339 C50.5160251,4.90661339 50.1009623,5.01463125 49.7225105,5.23087232 C49.3440586,5.44711339 49.0390377,5.76315804 48.8074477,6.17900625 C48.5758577,6.59464911 48.4601674,7.09120268 48.4601674,7.66764018 L48.4601674,12.2253366 L47.1045188,12.2253366 L47.1045188,7.03555089 C47.1045188,6.31495268 46.9208368,5.77979196 46.5538912,5.43047946 C46.1865272,5.08116696 45.7034728,4.90661339 45.1049372,4.90661339 C44.6982427,4.90661339 44.302636,5.00929196 43.9187448,5.21423839 C43.5344351,5.41959554 43.2181172,5.73830982 42.9697908,6.17058661 C42.721046,6.60306875 42.5969874,7.14130982 42.5969874,7.78407768 L42.5969874,12.2253366 L41.2413389,12.2253366 L41.2413389,3.90837232 L42.4275314,3.90837232 L42.5122594,5.20602411 C42.8059833,4.71809554 43.1925941,4.35214911 43.6729289,4.10797946 C44.1530544,3.86442589 44.67,3.74223839 45.2235565,3.74223839 C45.8446862,3.74223839 46.4181172,3.88105982 46.943431,4.15788125 C47.468954,4.43531875 47.8670711,4.84007768 48.1382008,5.37215804 C48.3867364,4.84007768 48.7932218,4.43531875 49.3582845,4.15788125 C49.9229289,3.88105982 50.4990795,3.74223839 51.0867364,3.74223839 C51.65159,3.74223839 52.1796234,3.85600625 52.6712552,4.08313125" id="Fill-86"></path>
                <path d="M58.6358368,5.55511071 C58.1780962,5.98759286 57.8988075,6.59770893 57.7969247,7.38484286 L62.9314435,7.38484286 C62.8410669,6.60879821 62.5810251,6.0017625 62.1521548,5.56353036 C61.7226569,5.12550357 61.1521548,4.90659286 60.4404393,4.90659286 C59.6948326,4.90659286 59.0933682,5.12283393 58.6358368,5.55511071 M64.1684728,8.56585179 L57.7799791,8.56585179 C57.8588494,9.40884286 58.144205,10.0629054 58.6358368,10.5288607 C59.1272594,10.9944054 59.7628243,11.2272804 60.542113,11.2272804 C61.1632427,11.2272804 61.6801883,11.1219321 62.0925314,10.9112357 C62.5048745,10.70095 62.7845816,10.3955839 62.9314435,9.996575 L64.0667992,10.5787625 C63.727887,11.1664946 63.2760042,11.6158161 62.7111506,11.9259054 C62.1460879,12.2362 61.4232845,12.3916554 60.542113,12.3916554 C59.2655439,12.3916554 58.2630335,12.0092804 57.5341632,11.2439143 C56.8057113,10.4789589 56.4414854,9.41993214 56.4414854,8.06683393 C56.4414854,6.71414643 56.7887657,5.65491429 57.4835356,4.88995893 C58.1780962,4.12459286 59.1636611,3.74221786 60.4404393,3.74221786 C61.2310251,3.74221786 61.9147071,3.91430714 62.4910669,4.25786964 C63.0672176,4.60143214 63.5019456,5.0673875 63.7956695,5.65491429 C64.0891841,6.24305714 64.2364644,6.90266429 64.2364644,7.63435179 C64.2364644,7.94505714 64.2134519,8.25555714 64.1684728,8.56585179" id="Fill-88"></path>
                <path d="M72.8783264,4.55721875 C73.4996653,5.10059375 73.8103347,5.88238839 73.8103347,6.90260268 L73.8103347,12.2254598 L72.4548954,12.2254598 L72.4548954,7.36814732 C72.4548954,6.50338839 72.2653556,5.87704911 71.887113,5.48871875 C71.5084519,5.10059375 71.0030126,4.90653125 70.3705858,4.90653125 C69.9184937,4.90653125 69.4948536,5.00366518 69.0996653,5.19752232 C68.7040586,5.39158482 68.3793724,5.70783482 68.1251883,6.14565625 C67.870795,6.58388839 67.7438075,7.13547768 67.7438075,7.80083482 L67.7438075,12.2254598 L66.3883682,12.2254598 L66.3883682,3.90849554 L67.5743515,3.90849554 L67.6592887,5.20594196 C67.9412971,4.70692411 68.3312552,4.33851339 68.8285356,4.09968304 C69.3253975,3.86126339 69.8843933,3.74215625 70.5059414,3.74215625 C71.4659833,3.74215625 72.2569874,4.01384375 72.8783264,4.55721875" id="Fill-90"></path>
                <path d="M81.5207113,11.6432312 C80.9556485,12.1422491 80.2267782,12.391758 79.334728,12.391758 C78.6453975,12.391758 78.0832636,12.2087848 77.6485356,11.8428384 C77.2135983,11.476892 76.9903766,10.9170884 76.9792887,10.1628116 L76.9792887,5.05619554 L75.2845188,5.05619554 L75.2845188,3.90845446 L76.9792887,3.90845446 L76.9792887,1.91238304 L78.334728,1.54643661 L78.334728,3.90845446 L81.4698745,3.90845446 L81.4698745,5.05619554 L78.334728,5.05619554 L78.334728,9.92993661 C78.334728,10.3291509 78.4506276,10.6314366 78.6824268,10.836383 C78.9135983,11.0417402 79.2215481,11.1442134 79.6058577,11.1442134 C80.1479079,11.1442134 80.6280335,10.9390616 81.0460251,10.528758 L81.5207113,11.6432312 Z" id="Fill-92"></path>
                <path d="M87.1886402,10.7283652 C87.7026569,10.3956866 87.9597699,9.96320446 87.9597699,9.43091875 L87.9597699,8.28317768 L86.0618619,8.63249018 C85.304749,8.76556161 84.7401046,8.95695446 84.3673013,9.20646339 C83.9944979,9.45597232 83.8080962,9.77468661 83.8080962,10.1628116 C83.8080962,10.5067848 83.9436611,10.7698473 84.2147908,10.9530259 C84.4859205,11.1357937 84.8643724,11.227383 85.3501464,11.227383 C86.0618619,11.227383 86.6746234,11.0610437 87.1886402,10.7283652 M90.6371757,11.1776866 L90.5524477,12.2254187 C90.2359205,12.3361063 89.8970084,12.391758 89.5357113,12.391758 C89.0951255,12.391758 88.747636,12.2974991 88.4934519,12.1089812 C88.2392678,11.9206687 88.0783891,11.6046241 88.0106067,11.1608473 C87.7507741,11.5491777 87.3691841,11.851258 86.8668828,12.0674991 C86.363954,12.2835348 85.8357113,12.391758 85.282364,12.391758 C84.4463808,12.391758 83.7572594,12.2005705 83.215,11.8179902 C82.6727406,11.4352045 82.4016109,10.8838205 82.4016109,10.1628116 C82.4016109,9.53072232 82.6838285,8.98467768 83.2488912,8.52447232 C83.8135356,8.06426696 84.6325732,7.74555268 85.7060042,7.56791875 L87.9597699,7.20197232 L87.9597699,6.73622232 C87.9597699,6.18175804 87.7844561,5.73818661 87.4344561,5.40550804 C87.0842469,5.07282946 86.5982636,4.90649018 85.9771339,4.90649018 C85.4120711,4.90649018 84.9235774,5.03956161 84.5112343,5.30570446 C84.098682,5.57184732 83.7796444,5.96572232 83.5539121,6.48671339 L82.5541213,5.77145446 C82.7800628,5.15065982 83.2007741,4.65698125 83.8166736,4.29103482 C84.4321548,3.92508839 85.1524477,3.74211518 85.9771339,3.74211518 C86.9825732,3.74211518 87.7903138,3.98074018 88.4003556,4.45737411 C89.0103975,4.93421339 89.3154184,5.63838304 89.3154184,6.56988304 L89.3154184,10.6618295 C89.3154184,10.8614366 89.3662552,11.011142 89.4679289,11.1109455 C89.5696025,11.2107491 89.7332008,11.2606509 89.9593515,11.2606509 C90.1850837,11.2606509 90.4110251,11.233133 90.6371757,11.1776866" id="Fill-94"></path>
                <path d="M97.0259833,11.6432312 C96.4609205,12.1422491 95.7320502,12.391758 94.84,12.391758 C94.1506695,12.391758 93.5885356,12.2087848 93.1538075,11.8428384 C92.7188703,11.476892 92.4956485,10.9170884 92.4845607,10.1628116 L92.4845607,5.05619554 L90.7897908,5.05619554 L90.7897908,3.90845446 L92.4845607,3.90845446 L92.4845607,1.91238304 L93.84,1.54643661 L93.84,3.90845446 L96.9751464,3.90845446 L96.9751464,5.05619554 L93.84,5.05619554 L93.84,9.92993661 C93.84,10.3291509 93.9558996,10.6314366 94.1876987,10.836383 C94.4188703,11.0417402 94.7268201,11.1442134 95.1111297,11.1442134 C95.6531799,11.1442134 96.1333054,10.9390616 96.5512971,10.528758 L97.0259833,11.6432312 Z" id="Fill-96"></path>
                <path d="M98.5171548,12.2253571 L99.8725941,12.2253571 L99.8725941,3.90839286 L98.5171548,3.90839286 L98.5171548,12.2253571 Z M98.4575314,2.03717857 C98.2711297,1.854 98.1780335,1.61311607 98.1780335,1.31370536 C98.1780335,1.01429464 98.2711297,0.773 98.4575314,0.590026786 C98.6441423,0.407053571 98.889749,0.315464286 99.1947699,0.315464286 C99.4997908,0.315464286 99.7453975,0.407053571 99.9320084,0.590026786 C100.118201,0.773 100.211506,1.01429464 100.211506,1.31370536 C100.211506,1.61311607 100.118201,1.854 99.9320084,2.03717857 C99.7453975,2.22015179 99.4997908,2.31153571 99.1947699,2.31153571 C98.889749,2.31153571 98.6441423,2.22015179 98.4575314,2.03717857 L98.4575314,2.03717857 Z" id="Fill-98"></path>
                <path d="M104.159791,5.73822768 C103.673808,6.30378125 103.43113,7.08003125 103.43113,8.06697768 C103.43113,9.05392411 103.673808,9.83017411 104.159791,10.3957277 C104.645356,10.9612812 105.317531,11.244058 106.176318,11.244058 C107.034686,11.244058 107.706862,10.9612812 108.192636,10.3957277 C108.67841,9.83017411 108.921506,9.05392411 108.921506,8.06697768 C108.921506,7.08003125 108.67841,6.30378125 108.192636,5.73822768 C107.706862,5.17267411 107.034686,4.88989732 106.176318,4.88989732 C105.317531,4.88989732 104.645356,5.17267411 104.159791,5.73822768 M109.184268,4.88989732 C109.91272,5.65505804 110.276946,6.71408482 110.276946,8.06697768 C110.276946,9.42007589 109.91272,10.4788973 109.184268,11.244058 C108.455397,12.0092187 107.452678,12.3915937 106.176318,12.3915937 C104.89954,12.3915937 103.897029,12.0092187 103.168368,11.244058 C102.439707,10.4788973 102.075481,9.42007589 102.075481,8.06697768 C102.075481,6.71408482 102.439707,5.65505804 103.168368,4.88989732 C103.897029,4.12473661 104.89954,3.74215625 106.176318,3.74215625 C107.452678,3.74215625 108.455397,4.12473661 109.184268,4.88989732" id="Fill-100"></path>
                <path d="M119.901841,6.90260268 L119.901841,12.2254598 L118.546402,12.2254598 L118.546402,7.36814732 C118.546402,6.50338839 118.356862,5.87704911 117.978619,5.48871875 C117.599958,5.10059375 117.094519,4.90653125 116.462092,4.90653125 C116.01,4.90653125 115.58636,5.00366518 115.191172,5.19752232 C114.795565,5.39158482 114.470879,5.70783482 114.216695,6.14565625 C113.962301,6.58388839 113.835314,7.13547768 113.835314,7.80083482 L113.835314,12.2254598 L112.479874,12.2254598 L112.479874,3.90849554 L113.665858,3.90849554 L113.750795,5.20594196 C114.032803,4.70692411 114.422762,4.33851339 114.920042,4.09968304 C115.416904,3.86126339 115.9759,3.74215625 116.597448,3.74215625 C117.55749,3.74215625 118.348494,4.01384375 118.969833,4.55721875 C119.591172,5.10059375 119.901841,5.88238839 119.901841,6.90260268 Z" id="Fill-101"></path>
            </g>
            <g id="ICGC-ARGO-logo-horizontal" transform="translate(0.000000, 1.000000)" fill-rule="nonzero">
                <g id="Primary">
                    <g id="Group">
                        <g transform="translate(103.068182, 0.000000)" id="Path">
                            <path d="M8.78409091,12.8977273 C8.76136364,13.0909091 8.73863636,13.2840909 8.71590909,13.4772727 L15.3068182,13.4772727 C15.8863636,12.6818182 16.3295455,11.7840909 16.5909091,10.8181818 L12.2159091,10.8181818 C11.5,12 10.2386364,12.8068182 8.78409091,12.8977273 Z" fill="#131B3C"></path>
                            <path d="M0.386363636,10.8181818 C0.659090909,11.7840909 1.10227273,12.6818182 1.67045455,13.4772727 L3.34090909,13.4772727 C2.79545455,12.6818182 2.36363636,11.7840909 2.11363636,10.8181818 L0.386363636,10.8181818 L0.386363636,10.8181818 Z" fill="#131B3C"></path>
                            <path d="M12.6590909,9.86363636 L16.7954545,9.86363636 C16.8636364,9.43181818 16.8977273,8.98863636 16.8977273,8.53409091 C16.8977273,8.07954545 16.8636364,7.63636364 16.7954545,7.20454545 L12.6590909,7.20454545 C12.7954545,7.625 12.8636364,8.06818182 12.8636364,8.53409091 C12.8636364,9 12.7954545,9.44318182 12.6590909,9.86363636 Z" fill="#131B3C"></path>
                            <path d="M1.92045455,7.20454545 L0.181818182,7.20454545 C0.113636364,7.63636364 0.0795454545,8.07954545 0.0795454545,8.53409091 C0.0795454545,8.98863636 0.113636364,9.43181818 0.181818182,9.86363636 L1.92045455,9.86363636 C1.85227273,9.43181818 1.81818182,9 1.81818182,8.55681818 C1.80681818,8.10227273 1.85227273,7.64772727 1.92045455,7.20454545 Z" fill="#131B3C"></path>
                            <path d="M14.5,2.64772727 C12.9772727,1.09090909 10.8409091,0.125 8.48863636,0.125 C8.45454545,0.125 8.40909091,0.125 8.375,0.125 C8.52272727,0.965909091 8.63636364,1.80681818 8.72727273,2.64772727 L14.5,2.64772727 Z" fill="#131B3C"></path>
                            <path d="M8.34090909,0.125 C6.04545455,0.170454545 3.97727273,1.125 2.48863636,2.64772727 L4.13636364,2.64772727 C5.23863636,1.44318182 6.69318182,0.545454545 8.34090909,0.125 Z" fill="#131B3C"></path>
                            <path d="M1.68181818,3.60227273 C1.10227273,4.39772727 0.659090909,5.29545455 0.397727273,6.26136364 L2.13636364,6.26136364 C2.39772727,5.29545455 2.82954545,4.39772727 3.38636364,3.60227273 L1.68181818,3.60227273 Z" fill="#131B3C"></path>
                            <path d="M12.2272727,6.25 L16.6022727,6.25 C16.3295455,5.28409091 15.8863636,4.38636364 15.3181818,3.59090909 L8.85227273,3.59090909 C8.875,3.78409091 8.88636364,3.97727273 8.89772727,4.17045455 C10.2954545,4.30681818 11.5227273,5.10227273 12.2272727,6.25 Z" fill="#131B3C"></path>
                            <path d="M8.18181818,16.9431818 C6.59090909,16.5 5.18181818,15.6136364 4.10227273,14.4318182 L2.48863636,14.4318182 C4.01136364,15.9886364 6.14772727,16.9545455 8.5,16.9545455 C10.8522727,16.9545455 12.9772727,15.9886364 14.5113636,14.4318182 L8.61363636,14.4318182 C8.47727273,15.2727273 8.34090909,16.1136364 8.18181818,16.9431818 Z" fill="#131B3C"></path>
                            <path d="M8.375,0.113636364 C8.36363636,0.113636364 8.35227273,0.125 8.32954545,0.125 C8.35227273,0.125 8.36363636,0.125 8.375,0.113636364 C8.375,0.125 8.375,0.113636364 8.375,0.113636364 Z" fill="#37B34A"></path>
                            <path d="M8.48863636,12.9090909 C6.90909091,12.9090909 5.52272727,12.0681818 4.75,10.8181818 L2.10227273,10.8181818 C2.36363636,11.7840909 2.78409091,12.6704545 3.32954545,13.4772727 L8.70454545,13.4772727 C8.72727273,13.2840909 8.75,13.0909091 8.77272727,12.8977273 C8.68181818,12.9090909 8.59090909,12.9090909 8.48863636,12.9090909 Z" fill="#3075BA"></path>
                            <path d="M4.31818182,7.20454545 L1.92045455,7.20454545 C1.85227273,7.64772727 1.80681818,8.09090909 1.80681818,8.54545455 C1.80681818,8.98863636 1.84090909,9.43181818 1.90909091,9.85227273 L4.31818182,9.85227273 C4.18181818,9.43181818 4.11363636,8.98863636 4.11363636,8.52272727 C4.11363636,8.05681818 4.19318182,7.625 4.31818182,7.20454545 Z" fill="#3075BA"></path>
                            <path d="M4.125,2.64772727 L8.73863636,2.64772727 C8.63636364,1.80681818 8.52272727,0.965909091 8.38636364,0.125 C8.375,0.125 8.35227273,0.125 8.34090909,0.125 C6.69318182,0.545454545 5.23863636,1.44318182 4.125,2.64772727 Z" fill="#3075BA"></path>
                            <path d="M8.48863636,4.15909091 C8.625,4.15909091 8.75,4.17045455 8.88636364,4.18181818 C8.875,3.98863636 8.85227273,3.79545455 8.84090909,3.60227273 L3.375,3.60227273 C2.81818182,4.39772727 2.39772727,5.29545455 2.125,6.26136364 L4.76136364,6.26136364 C5.52272727,5 6.90909091,4.15909091 8.48863636,4.15909091 Z" fill="#3075BA"></path>
                            <path d="M8.18181818,16.9431818 C8.34090909,16.1136364 8.47727273,15.2727273 8.60227273,14.4318182 L4.10227273,14.4318182 C5.18181818,15.6136364 6.59090909,16.5 8.18181818,16.9431818 Z" fill="#3075BA"></path>
                        </g>
                        <g transform="translate(108.068182, 5.000000)" fill="#DD1C4D" id="Path">
                            <path d="M3.69318182,1.79545455 L3.69318182,3.36363636 L5.34090909,3.36363636 C5.32954545,2.79545455 5.23863636,2.26136364 5.09090909,1.79545455 L3.69318182,1.79545455 Z"></path>
                            <path d="M3.69318182,3.70454545 L3.69318182,5.27272727 L5.09090909,5.27272727 C5.23863636,4.80681818 5.32954545,4.27272727 5.34090909,3.70454545 L3.69318182,3.70454545 Z"></path>
                            <path d="M3.35227273,5.28409091 L3.35227273,3.70454545 L1.70454545,3.70454545 C1.71590909,4.27272727 1.80681818,4.80681818 1.95454545,5.27272727 L3.35227273,5.27272727 L3.35227273,5.28409091 Z"></path>
                            <path d="M3.35227273,7.01136364 L3.35227273,5.625 L2.06818182,5.625 C2.375,6.38636364 2.84090909,6.90909091 3.35227273,7.01136364 Z"></path>
                            <path d="M3.35227273,3.36363636 L3.35227273,1.79545455 L1.95454545,1.79545455 C1.80681818,2.26136364 1.71590909,2.79545455 1.70454545,3.36363636 L3.35227273,3.36363636 Z"></path>
                            <path d="M5.35227273,5.625 C5.17045455,6.125 4.92045455,6.54545455 4.63636364,6.85227273 C4.81818182,6.79545455 5,6.71590909 5.15909091,6.625 C5.60227273,6.375 5.98863636,6.03409091 6.29545455,5.625 L5.35227273,5.625 Z"></path>
                            <path d="M3.35227273,1.45454545 L3.35227273,0.0681818182 C3.35227273,0.0681818182 3.35227273,0.0681818182 3.35227273,0.0681818182 C2.84090909,0.170454545 2.375,0.693181818 2.07954545,1.45454545 L3.35227273,1.45454545 Z"></path>
                            <path d="M3.69318182,5.625 L3.69318182,7.01136364 C4.20454545,6.92045455 4.67045455,6.38636364 4.97727273,5.625 L3.69318182,5.625 Z"></path>
                            <path d="M2.42045455,6.84090909 C2.125,6.53409091 1.88636364,6.125 1.70454545,5.61363636 L0.738636364,5.61363636 C1.14772727,6.18181818 1.73863636,6.61363636 2.42045455,6.84090909 Z"></path>
                            <path d="M1.59090909,5.28409091 C1.45454545,4.80681818 1.375,4.28409091 1.36363636,3.71590909 L0.0454545455,3.71590909 C0.0681818182,4.28409091 0.238636364,4.81818182 0.511363636,5.28409091 L1.59090909,5.28409091 Z"></path>
                            <path d="M5.69318182,3.70454545 C5.68181818,4.27272727 5.60227273,4.80681818 5.46590909,5.27272727 L6.51136364,5.27272727 C6.77272727,4.80681818 6.94318182,4.27272727 6.96590909,3.70454545 L5.69318182,3.70454545 Z"></path>
                            <path d="M5.46590909,1.79545455 C5.60227273,2.27272727 5.68181818,2.79545455 5.69318182,3.36363636 L6.96590909,3.36363636 C6.93181818,2.79545455 6.76136364,2.26136364 6.48863636,1.79545455 L5.46590909,1.79545455 Z"></path>
                            <path d="M3.73863636,0.0795454545 C3.72727273,0.0795454545 3.71590909,0.0795454545 3.70454545,0.0795454545 L3.70454545,1.46590909 L4.98863636,1.46590909 C4.68181818,0.715909091 4.23863636,0.193181818 3.73863636,0.0795454545 Z"></path>
                            <path d="M4.68181818,0.272727273 C4.95454545,0.568181818 5.18181818,0.977272727 5.35227273,1.45454545 L6.26136364,1.45454545 C5.86363636,0.920454545 5.31818182,0.511363636 4.68181818,0.272727273 Z"></path>
                            <path d="M0.727272727,1.45454545 L1.69318182,1.45454545 C1.875,0.954545455 2.125,0.534090909 2.40909091,0.227272727 C1.73863636,0.454545455 1.14772727,0.886363636 0.727272727,1.45454545 Z"></path>
                            <path d="M1.36363636,3.36363636 C1.375,2.79545455 1.45454545,2.26136364 1.59090909,1.79545455 L0.511363636,1.79545455 C0.238636364,2.26136364 0.0795454545,2.79545455 0.0454545455,3.36363636 L1.36363636,3.36363636 Z"></path>
                        </g>
                        <g transform="translate(0.000000, 0.568182)" fill="#131B3C">
                            <polygon id="Path" points="0 0.295454545 3.5 0.295454545 3.5 16.2045455 0 16.2045455"></polygon>
                            <path d="M5.06818182,8.29545455 L5.06818182,8.25 C5.06818182,3.72727273 8.47727273,0.0227272727 13.3636364,0.0227272727 C16.3636364,0.0227272727 18.1590909,1.02272727 19.6363636,2.47727273 L17.4090909,5.04545455 C16.1818182,3.93181818 14.9318182,3.25 13.3409091,3.25 C10.6590909,3.25 8.72727273,5.47727273 8.72727273,8.20454545 L8.72727273,8.25 C8.72727273,10.9772727 10.6136364,13.25 13.3409091,13.25 C15.1590909,13.25 16.2727273,12.5227273 17.5227273,11.3863636 L19.75,13.6363636 C18.1136364,15.3863636 16.2954545,16.4772727 13.2272727,16.4772727 C8.54545455,16.4772727 5.06818182,12.8636364 5.06818182,8.29545455 Z" id="Path"></path>
                            <path d="M19.6818182,8.29545455 L19.6818182,8.25 C19.6818182,3.72727273 23.2045455,0.0227272727 28.0227273,0.0227272727 C30.8863636,0.0227272727 32.6136364,0.795454545 34.2727273,2.20454545 L32.0681818,4.86363636 C30.8409091,3.84090909 29.75,3.25 27.9090909,3.25 C25.3636364,3.25 23.3409091,5.5 23.3409091,8.20454545 L23.3409091,8.25 C23.3409091,11.1590909 25.3409091,13.2954545 28.1590909,13.2954545 C29.4318182,13.2954545 30.5681818,12.9772727 31.4545455,12.3409091 L31.4545455,10.0681818 L27.9318182,10.0681818 L27.9318182,7.04545455 L34.8409091,7.04545455 L34.8409091,13.9545455 C33.2045455,15.3409091 30.9545455,16.4772727 28.0454545,16.4772727 C23.0909091,16.4772727 19.6818182,13 19.6818182,8.29545455 Z" id="Path"></path>
                            <path d="M35.7954545,8.29545455 L35.7954545,8.25 C35.7954545,3.72727273 39.2045455,0.0227272727 44.0909091,0.0227272727 C47.0909091,0.0227272727 48.8863636,1.02272727 50.3636364,2.47727273 L48.1363636,5.04545455 C46.9090909,3.93181818 45.6590909,3.25 44.0681818,3.25 C41.3863636,3.25 39.4545455,5.47727273 39.4545455,8.20454545 L39.4545455,8.25 C39.4545455,10.9772727 41.3409091,13.25 44.0681818,13.25 C45.8863636,13.25 47,12.5227273 48.25,11.3863636 L50.4772727,13.6363636 C48.8409091,15.3863636 47.0227273,16.4772727 43.9545455,16.4772727 C39.2727273,16.4772727 35.7954545,12.8636364 35.7954545,8.29545455 Z" id="Path"></path>
                            <path d="M62.1363636,0.181818182 L65.3636364,0.181818182 L72.1818182,16.2045455 L68.5227273,16.2045455 L67.0681818,12.6363636 L60.3409091,12.6363636 L58.8863636,16.2045455 L55.3181818,16.2045455 L62.1363636,0.181818182 Z M65.8181818,9.54545455 L63.7045455,4.38636364 L61.5909091,9.54545455 L65.8181818,9.54545455 Z" id="Shape"></path>
                            <path d="M72.9318182,0.295454545 L80.2045455,0.295454545 C82.2272727,0.295454545 83.7954545,0.863636364 84.8409091,1.90909091 C85.7272727,2.79545455 86.2045455,4.04545455 86.2045455,5.54545455 L86.2045455,5.59090909 C86.2045455,8.15909091 84.8181818,9.77272727 82.7954545,10.5227273 L86.6818182,16.2045455 L82.5909091,16.2045455 L79.1818182,11.1136364 L76.4318182,11.1136364 L76.4318182,16.2045455 L72.9318182,16.2045455 L72.9318182,0.295454545 Z M79.9772727,8.02272727 C81.6818182,8.02272727 82.6590909,7.11363636 82.6590909,5.77272727 L82.6590909,5.72727273 C82.6590909,4.22727273 81.6136364,3.45454545 79.9090909,3.45454545 L76.4318182,3.45454545 L76.4318182,8.02272727 L79.9772727,8.02272727 Z" id="Shape"></path>
                            <path d="M86.9545455,8.29545455 L86.9545455,8.25 C86.9545455,3.72727273 90.4772727,0.0227272727 95.2954545,0.0227272727 C98.1590909,0.0227272727 99.8863636,0.795454545 101.545455,2.20454545 L99.3409091,4.86363636 C98.1136364,3.84090909 97.0227273,3.25 95.1818182,3.25 C92.6363636,3.25 90.6136364,5.5 90.6136364,8.20454545 L90.6136364,8.25 C90.6136364,11.1590909 92.6136364,13.2954545 95.4318182,13.2954545 C96.7045455,13.2954545 97.8409091,12.9772727 98.7272727,12.3409091 L98.7272727,10.0681818 L95.2045455,10.0681818 L95.2045455,7.04545455 L102.113636,7.04545455 L102.113636,13.9545455 C100.477273,15.3409091 98.2272727,16.4772727 95.3181818,16.4772727 C90.3636364,16.4772727 86.9545455,13 86.9545455,8.29545455 Z" id="Path"></path>
                        </g>
                    </g>
                </g>
            </g>
        </g>
    </g>
</svg>