<?xml version="1.0" encoding="UTF-8"?>
<svg width="63px" height="20px" viewBox="0 0 63 20" version="1.1" xmlns="http://www.w3.org/2000/svg" xmlns:xlink="http://www.w3.org/1999/xlink">
    <!-- Generator: Sketch 54.1 (76490) - https://sketchapp.com -->
    <title>dictionary-extended</title>
    <desc>Created with Sketch.</desc>
    <g id="Pages---Documentation" stroke="none" stroke-width="1" fill="none" fill-rule="evenodd">
        <g id="Documentation/Dictionary-details" transform="translate(-422.000000, -1753.000000)">
            <g id="content" transform="translate(30.000000, 78.000000)">
                <g id="Specimen" transform="translate(0.000000, 1031.000000)">
                    <g id="Table-Copy" transform="translate(0.000000, 86.000000)">
                        <g id="Field-row" transform="translate(0.000000, 551.000000)">
                            <g id="tier" transform="translate(386.000000, 0.000000)">
                                <g id="dictionary-extended" transform="translate(6.000000, 7.000000)">
                                    <rect id="Rectangle" fill="#A1A4B1" x="0" y="0" width="63" height="20" rx="8"></rect>
                                    <path d="M14.025,11.67 L14.025,13 L8.755,13 L8.755,6.4 L13.895,6.4 L13.895,7.73 L10.475,7.73 L10.475,9.07 L13.195,9.07 L13.195,10.32 L10.475,10.32 L10.475,11.67 L14.025,11.67 Z M18.245,13 L17.265,11.26 L16.265,13 L14.385,13 L16.185,10.47 L14.455,8 L16.385,8 L17.305,9.67 L18.245,8 L20.125,8 L18.385,10.48 L20.165,13 L18.245,13 Z M24.465,12.72 C24.2983325,12.8333339 24.0866679,12.9249997 23.83,12.995 C23.573332,13.0650004 23.3150013,13.1 23.055,13.1 C22.4616637,13.1 22.0083349,12.9733346 21.695,12.72 C21.3816651,12.4666654 21.2216667,12.0600028 21.215,11.5 L21.215,9.21 L20.355,9.21 L20.355,8 L21.215,8 L21.215,6.88 L22.915,6.41 L22.915,8 L24.415,8 L24.415,9.21 L22.915,9.21 L22.915,11.22 C22.915,11.6666689 23.1349978,11.89 23.575,11.89 C23.8483347,11.89 24.0883323,11.8166674 24.295,11.67 L24.465,12.72 Z M30.055,10.43 C30.055,10.6566678 30.0383335,10.8433326 30.005,10.99 L26.595,10.99 C26.6483336,11.3033349 26.7633325,11.5333326 26.94,11.68 C27.1166675,11.8266674 27.3516652,11.9 27.645,11.9 C27.8916679,11.9 28.0933325,11.8533338 28.25,11.76 C28.4066675,11.6666662 28.5116664,11.5300009 28.565,11.35 L29.945,11.79 C29.8049993,12.2166688 29.5333354,12.5416655 29.13,12.765 C28.7266646,12.9883344 28.2316696,13.1 27.645,13.1 C26.7716623,13.1 26.1033357,12.8733356 25.64,12.42 C25.1766643,11.9666644 24.945,11.3266708 24.945,10.5 C24.945,9.6733292 25.1716644,9.0333356 25.625,8.58 C26.0783356,8.1266644 26.7216625,7.9 27.555,7.9 C28.3616707,7.9 28.9799979,8.12166445 29.41,8.565 C29.8400022,9.00833555 30.055,9.629996 30.055,10.43 Z M27.545,9.09 C27.0049973,9.09 26.6850005,9.4166634 26.585,10.07 L28.465,10.07 C28.3849996,9.4166634 28.078336,9.09 27.545,9.09 Z M34.285,7.9 C34.8116693,7.9 35.2316651,8.0533318 35.545,8.36 C35.8583349,8.6666682 36.015,9.1033305 36.015,9.67 L36.015,13 L34.315,13 L34.315,10.14 C34.315,9.7999983 34.2533339,9.55833405 34.13,9.415 C34.006666,9.27166595 33.8316678,9.2 33.605,9.2 C33.338332,9.2 33.1216675,9.29499905 32.955,9.485 C32.7883325,9.67500095 32.705,9.9666647 32.705,10.36 L32.705,13 L31.005,13 L31.005,8 L32.525,8 L32.575,8.96 C32.7350008,8.6066649 32.9616652,8.34166755 33.255,8.165 C33.5483348,7.98833245 33.8916647,7.9 34.285,7.9 Z M42.275,5.88 L42.275,13 L40.745,13 L40.685,12.05 C40.5383326,12.3766683 40.3233348,12.6333324 40.04,12.82 C39.7566652,13.0066676 39.4283352,13.1 39.055,13.1 C38.4083301,13.1 37.9033351,12.8733356 37.54,12.42 C37.1766648,11.9666644 36.995,11.3333374 36.995,10.52 C36.995,9.6933292 37.1783315,9.0500023 37.545,8.59 C37.9116685,8.1299977 38.4183301,7.9 39.065,7.9 C39.4183351,7.9 39.7216654,7.9833325 39.975,8.15 C40.2283346,8.3166675 40.4283326,8.5466652 40.575,8.84 L40.575,5.88 L42.275,5.88 Z M39.645,11.85 C39.9183347,11.85 40.1366658,11.7516676 40.3,11.555 C40.4633342,11.3583323 40.5549999,11.0733352 40.575,10.7 L40.575,10.3 C40.5549999,9.9333315 40.4633342,9.650001 40.3,9.45 C40.1366658,9.249999 39.9183347,9.15 39.645,9.15 C39.3449985,9.15 39.1133342,9.2599989 38.95,9.48 C38.7866658,9.7000011 38.705,10.0399977 38.705,10.5 C38.705,10.9600023 38.7866658,11.2999989 38.95,11.52 C39.1133342,11.7400011 39.3449985,11.85 39.645,11.85 Z M48.355,10.43 C48.355,10.6566678 48.3383335,10.8433326 48.305,10.99 L44.895,10.99 C44.9483336,11.3033349 45.0633325,11.5333326 45.24,11.68 C45.4166675,11.8266674 45.6516652,11.9 45.945,11.9 C46.1916679,11.9 46.3933325,11.8533338 46.55,11.76 C46.7066674,11.6666662 46.8116664,11.5300009 46.865,11.35 L48.245,11.79 C48.1049993,12.2166688 47.8333353,12.5416655 47.43,12.765 C47.0266647,12.9883344 46.5316696,13.1 45.945,13.1 C45.0716623,13.1 44.4033357,12.8733356 43.94,12.42 C43.4766643,11.9666644 43.245,11.3266708 43.245,10.5 C43.245,9.6733292 43.4716644,9.0333356 43.925,8.58 C44.3783356,8.1266644 45.0216625,7.9 45.855,7.9 C46.6616707,7.9 47.2799979,8.12166445 47.71,8.565 C48.1400022,9.00833555 48.355,9.629996 48.355,10.43 Z M45.845,9.09 C45.3049973,9.09 44.9850005,9.4166634 44.885,10.07 L46.765,10.07 C46.6849996,9.4166634 46.378336,9.09 45.845,9.09 Z M54.375,5.88 L54.375,13 L52.845,13 L52.785,12.05 C52.6383326,12.3766683 52.4233347,12.6333324 52.14,12.82 C51.8566653,13.0066676 51.5283352,13.1 51.155,13.1 C50.5083301,13.1 50.0033351,12.8733356 49.64,12.42 C49.2766649,11.9666644 49.095,11.3333374 49.095,10.52 C49.095,9.6933292 49.2783315,9.0500023 49.645,8.59 C50.0116685,8.1299977 50.5183301,7.9 51.165,7.9 C51.5183351,7.9 51.8216654,7.9833325 52.075,8.15 C52.3283346,8.3166675 52.5283326,8.5466652 52.675,8.84 L52.675,5.88 L54.375,5.88 Z M51.745,11.85 C52.0183347,11.85 52.2366658,11.7516676 52.4,11.555 C52.5633342,11.3583323 52.6549999,11.0733352 52.675,10.7 L52.675,10.3 C52.6549999,9.9333315 52.5633342,9.650001 52.4,9.45 C52.2366658,9.249999 52.0183347,9.15 51.745,9.15 C51.4449985,9.15 51.2133341,9.2599989 51.05,9.48 C50.8866658,9.7000011 50.805,10.0399977 50.805,10.5 C50.805,10.9600023 50.8866658,11.2999989 51.05,11.52 C51.2133341,11.7400011 51.4449985,11.85 51.745,11.85 Z" id="Extended" fill="#FFFFFF" fill-rule="nonzero"></path>
                                </g>
                            </g>
                        </g>
                    </g>
                </g>
            </g>
        </g>
    </g>
</svg>