<?xml version="1.0" encoding="UTF-8"?>
<svg width="73px" height="20px" viewBox="0 0 73 20" version="1.1" xmlns="http://www.w3.org/2000/svg" xmlns:xlink="http://www.w3.org/1999/xlink">
    <!-- Generator: Sketch 54.1 (76490) - https://sketchapp.com -->
    <title>dictionary-conditional</title>
    <desc>Created with Sketch.</desc>
    <g id="Pages---Documentation" stroke="none" stroke-width="1" fill="none" fill-rule="evenodd">
        <g id="Documentation/Dictionary-details" transform="translate(-498.000000, -1672.000000)">
            <g id="content" transform="translate(30.000000, 78.000000)">
                <g id="Specimen" transform="translate(0.000000, 1031.000000)">
                    <g id="Table-Copy" transform="translate(0.000000, 86.000000)">
                        <g id="Field-row" transform="translate(0.000000, 469.000000)">
                            <g id="attribute" transform="translate(462.000000, 0.000000)">
                                <g id="dictionary-conditional" transform="translate(6.000000, 8.000000)">
                                    <rect id="Rectangle" fill="#EC8F17" x="0" y="0" width="73" height="20" rx="8"></rect>
                                    <path d="M14.69,11.11 C14.5033324,11.77667 14.1566692,12.2749984 13.65,12.605 C13.1433308,12.9350017 12.5266703,13.1 11.8,13.1 C11.13333,13.1 10.5566691,12.9650014 10.07,12.695 C9.5833309,12.4249986 9.2100013,12.0350025 8.95,11.525 C8.6899987,11.0149974 8.56,10.4066702 8.56,9.7 C8.56,8.9999965 8.6899987,8.3933359 8.95,7.88 C9.2100013,7.3666641 9.5833309,6.97500135 10.07,6.705 C10.5566691,6.43499865 11.1299967,6.3 11.79,6.3 C12.5100036,6.3 13.1199975,6.45166515 13.62,6.755 C14.1200025,7.05833485 14.4499992,7.5133303 14.61,8.12 L13.1,8.73 C13.0066662,8.329998 12.8633343,8.0500008 12.67,7.89 C12.4766657,7.7299992 12.2033351,7.65 11.85,7.65 C11.3633309,7.65 10.986668,7.82499825 10.72,8.175 C10.453332,8.52500175 10.32,9.03333 10.32,9.7 C10.32,10.36667 10.448332,10.8749982 10.705,11.225 C10.9616679,11.5750018 11.3333309,11.75 11.82,11.75 C12.1866685,11.75 12.4766656,11.6633342 12.69,11.49 C12.9033344,11.3166658 13.0499996,11.0433352 13.13,10.67 L14.69,11.11 Z M17.93,7.9 C18.7633375,7.9 19.4116643,8.12833105 19.875,8.585 C20.3383356,9.04166895 20.57,9.6799959 20.57,10.5 C20.57,11.3200041 20.3383356,11.958331 19.875,12.415 C19.4116643,12.871669 18.7633375,13.1 17.93,13.1 C17.0966625,13.1 16.4483356,12.871669 15.985,12.415 C15.5216643,11.958331 15.29,11.3200041 15.29,10.5 C15.29,9.6799959 15.5216643,9.04166895 15.985,8.585 C16.4483356,8.12833105 17.0966625,7.9 17.93,7.9 Z M17.93,9.11 C17.6099984,9.11 17.3733341,9.2199989 17.22,9.44 C17.0666659,9.6600011 16.99,10.0133309 16.99,10.5 C16.99,10.9866691 17.0666659,11.3399989 17.22,11.56 C17.3733341,11.7800011 17.6099984,11.89 17.93,11.89 C18.2500016,11.89 18.4866659,11.7800011 18.64,11.56 C18.7933341,11.3399989 18.87,10.9866691 18.87,10.5 C18.87,10.0133309 18.7933341,9.6600011 18.64,9.44 C18.4866659,9.2199989 18.2500016,9.11 17.93,9.11 Z M24.83,7.9 C25.3566693,7.9 25.7766651,8.0533318 26.09,8.36 C26.4033349,8.6666682 26.56,9.1033305 26.56,9.67 L26.56,13 L24.86,13 L24.86,10.14 C24.86,9.7999983 24.7983339,9.55833405 24.675,9.415 C24.551666,9.27166595 24.3766678,9.2 24.15,9.2 C23.883332,9.2 23.6666675,9.29499905 23.5,9.485 C23.3333325,9.67500095 23.25,9.9666647 23.25,10.36 L23.25,13 L21.55,13 L21.55,8 L23.07,8 L23.12,8.96 C23.2800008,8.6066649 23.5066652,8.34166755 23.8,8.165 C24.0933348,7.98833245 24.4366647,7.9 24.83,7.9 Z M32.82,5.88 L32.82,13 L31.29,13 L31.23,12.05 C31.0833326,12.3766683 30.8683347,12.6333324 30.585,12.82 C30.3016652,13.0066676 29.9733352,13.1 29.6,13.1 C28.9533301,13.1 28.4483351,12.8733356 28.085,12.42 C27.7216648,11.9666644 27.54,11.3333374 27.54,10.52 C27.54,9.6933292 27.7233315,9.0500023 28.09,8.59 C28.4566685,8.1299977 28.9633301,7.9 29.61,7.9 C29.9633351,7.9 30.2666654,7.9833325 30.52,8.15 C30.7733346,8.3166675 30.9733326,8.5466652 31.12,8.84 L31.12,5.88 L32.82,5.88 Z M30.19,11.85 C30.4633347,11.85 30.6816658,11.7516676 30.845,11.555 C31.0083341,11.3583323 31.0999999,11.0733352 31.12,10.7 L31.12,10.3 C31.0999999,9.9333315 31.0083341,9.650001 30.845,9.45 C30.6816658,9.249999 30.4633347,9.15 30.19,9.15 C29.8899985,9.15 29.6583341,9.2599989 29.495,9.48 C29.3316658,9.7000011 29.25,10.0399977 29.25,10.5 C29.25,10.9600023 29.3316658,11.2999989 29.495,11.52 C29.6583341,11.7400011 29.8899985,11.85 30.19,11.85 Z M34.88,7.42 C34.5333316,7.42 34.2816675,7.35500065 34.125,7.225 C33.9683325,7.09499935 33.89,6.8900014 33.89,6.61 C33.89,6.3233319 33.9683325,6.11500065 34.125,5.985 C34.2816675,5.85499935 34.5333316,5.79 34.88,5.79 C35.2266684,5.79 35.4783325,5.85499935 35.635,5.985 C35.7916674,6.11500065 35.87,6.3233319 35.87,6.61 C35.87,6.8900014 35.7916674,7.09499935 35.635,7.225 C35.4783325,7.35500065 35.2266684,7.42 34.88,7.42 Z M35.73,13 L34.03,13 L34.03,8 L35.73,8 L35.73,13 Z M40.57,12.72 C40.4033325,12.8333339 40.191668,12.9249997 39.935,12.995 C39.6783321,13.0650004 39.4200013,13.1 39.16,13.1 C38.5666637,13.1 38.1133349,12.9733346 37.8,12.72 C37.4866651,12.4666654 37.3266667,12.0600028 37.32,11.5 L37.32,9.21 L36.46,9.21 L36.46,8 L37.32,8 L37.32,6.88 L39.02,6.41 L39.02,8 L40.52,8 L40.52,9.21 L39.02,9.21 L39.02,11.22 C39.02,11.6666689 39.2399978,11.89 39.68,11.89 C39.9533347,11.89 40.1933323,11.8166674 40.4,11.67 L40.57,12.72 Z M42.14,7.42 C41.7933316,7.42 41.5416674,7.35500065 41.385,7.225 C41.2283325,7.09499935 41.15,6.8900014 41.15,6.61 C41.15,6.3233319 41.2283325,6.11500065 41.385,5.985 C41.5416674,5.85499935 41.7933316,5.79 42.14,5.79 C42.4866684,5.79 42.7383325,5.85499935 42.895,5.985 C43.0516675,6.11500065 43.13,6.3233319 43.13,6.61 C43.13,6.8900014 43.0516675,7.09499935 42.895,7.225 C42.7383325,7.35500065 42.4866684,7.42 42.14,7.42 Z M42.99,13 L41.29,13 L41.29,8 L42.99,8 L42.99,13 Z M46.6,7.9 C47.4333375,7.9 48.0816644,8.12833105 48.545,8.585 C49.0083356,9.04166895 49.24,9.6799959 49.24,10.5 C49.24,11.3200041 49.0083356,11.958331 48.545,12.415 C48.0816644,12.871669 47.4333375,13.1 46.6,13.1 C45.7666625,13.1 45.1183356,12.871669 44.655,12.415 C44.1916644,11.958331 43.96,11.3200041 43.96,10.5 C43.96,9.6799959 44.1916644,9.04166895 44.655,8.585 C45.1183356,8.12833105 45.7666625,7.9 46.6,7.9 Z M46.6,9.11 C46.2799984,9.11 46.0433341,9.2199989 45.89,9.44 C45.7366659,9.6600011 45.66,10.0133309 45.66,10.5 C45.66,10.9866691 45.7366659,11.3399989 45.89,11.56 C46.0433341,11.7800011 46.2799984,11.89 46.6,11.89 C46.9200016,11.89 47.1566659,11.7800011 47.31,11.56 C47.4633341,11.3399989 47.54,10.9866691 47.54,10.5 C47.54,10.0133309 47.4633341,9.6600011 47.31,9.44 C47.1566659,9.2199989 46.9200016,9.11 46.6,9.11 Z M53.5,7.9 C54.0266693,7.9 54.4466651,8.0533318 54.76,8.36 C55.0733349,8.6666682 55.23,9.1033305 55.23,9.67 L55.23,13 L53.53,13 L53.53,10.14 C53.53,9.7999983 53.468334,9.55833405 53.345,9.415 C53.2216661,9.27166595 53.0466678,9.2 52.82,9.2 C52.553332,9.2 52.3366675,9.29499905 52.17,9.485 C52.0033325,9.67500095 51.92,9.9666647 51.92,10.36 L51.92,13 L50.22,13 L50.22,8 L51.74,8 L51.79,8.96 C51.9500008,8.6066649 52.1766652,8.34166755 52.47,8.165 C52.7633348,7.98833245 53.1066647,7.9 53.5,7.9 Z M61.25,12.03 C61.3766673,12.03 61.4799996,12.0166668 61.56,11.99 L61.43,12.94 C61.2366657,13.0466672 61.0100013,13.1 60.75,13.1 C60.0299964,13.1 59.6000007,12.8433359 59.46,12.33 C59.1599985,12.8433359 58.5666711,13.1 57.68,13.1 C57.1799975,13.1 56.796668,12.9933344 56.53,12.78 C56.263332,12.5666656 56.13,12.2566687 56.13,11.85 C56.13,11.4233312 56.2816652,11.0783347 56.585,10.815 C56.8883348,10.5516654 57.3866632,10.3500007 58.08,10.21 L59.21,9.99 L59.21,9.81 C59.21,9.5833322 59.1466673,9.403334 59.02,9.27 C58.8933327,9.136666 58.7200011,9.07 58.5,9.07 C58.2466654,9.07 58.0400008,9.1299994 57.88,9.25 C57.7199992,9.3700006 57.6166669,9.5666653 57.57,9.84 L56.19,9.44 C56.2766671,8.9533309 56.5166647,8.57500135 56.91,8.305 C57.3033353,8.03499865 57.83333,7.9 58.5,7.9 C59.2800039,7.9 59.8733313,8.0599984 60.28,8.38 C60.6866687,8.7000016 60.89,9.1799968 60.89,9.82 L60.89,11.64 C60.89,11.9000013 61.0099988,12.03 61.25,12.03 Z M58.3,12 C58.5333345,12 58.7433324,11.9350006 58.93,11.805 C59.1166676,11.6749994 59.21,11.5033344 59.21,11.29 L59.21,10.86 L58.4,11.05 C58.1866656,11.1033336 58.0350005,11.1683329 57.945,11.245 C57.8549996,11.3216671 57.81,11.4299993 57.81,11.57 C57.81,11.7100007 57.8533329,11.8166663 57.94,11.89 C58.0266671,11.9633337 58.1466659,12 58.3,12 Z M63.91,11.27 C63.91,11.4966678 63.943333,11.6566662 64.01,11.75 C64.076667,11.8433338 64.1966658,11.89 64.37,11.89 C64.5300008,11.89 64.6999991,11.8600003 64.88,11.8 L64.77,12.85 C64.6499994,12.9233337 64.4933343,12.9833331 64.3,13.03 C64.1066657,13.0766669 63.9166676,13.1 63.73,13.1 C63.196664,13.1 62.8100012,12.9750013 62.57,12.725 C62.3299988,12.4749987 62.21,12.0733361 62.21,11.52 L62.21,5.88 L63.91,5.88 L63.91,11.27 Z" id="Conditional" fill="#FFFFFF" fill-rule="nonzero"></path>
                                </g>
                            </g>
                        </g>
                    </g>
                </g>
            </g>
        </g>
    </g>
</svg>