<?xml version="1.0" encoding="UTF-8"?>
<svg width="39px" height="21px" viewBox="0 0 39 21" version="1.1" xmlns="http://www.w3.org/2000/svg" xmlns:xlink="http://www.w3.org/1999/xlink">
    <!-- Generator: Sketch 54.1 (76490) - https://sketchapp.com -->
    <title>dictionary-core</title>
    <desc>Created with Sketch.</desc>
    <g id="Pages---Documentation" stroke="none" stroke-width="1" fill="none" fill-rule="evenodd">
        <g id="Documentation/Dictionary-details" transform="translate(-422.000000, -406.000000)">
            <g id="content" transform="translate(30.000000, 78.000000)">
                <g id="Sample-Registration" transform="translate(0.000000, 204.000000)">
                    <g id="Table" transform="translate(0.000000, 84.000000)">
                        <g id="Field-row" transform="translate(0.000000, 28.000000)">
                            <g id="data-tier" transform="translate(386.000000, 0.000000)">
                                <g id="dictionary-core" transform="translate(6.475000, 12.300000)">
                                    <rect id="Rectangle" fill="#00C79D" x="0" y="0" width="38.16" height="20" rx="8"></rect>
                                    <path d="M14.13,11.81 C13.9433324,12.47667 13.5966692,12.9749983 13.09,13.305 C12.5833308,13.6350016 11.9666703,13.8 11.24,13.8 C10.57333,13.8 9.9966691,13.6650014 9.51,13.395 C9.0233309,13.1249986 8.6500013,12.7350025 8.39,12.225 C8.1299987,11.7149974 8,11.1066702 8,10.4 C8,9.6999965 8.1299987,9.0933359 8.39,8.58 C8.6500013,8.0666641 9.0233309,7.67500135 9.51,7.405 C9.9966691,7.13499865 10.5699967,7 11.23,7 C11.9500036,7 12.5599975,7.15166515 13.06,7.455 C13.5600025,7.75833485 13.8899992,8.2133303 14.05,8.82 L12.54,9.43 C12.4466662,9.029998 12.3033343,8.7500008 12.11,8.59 C11.9166657,8.4299992 11.6433351,8.35 11.29,8.35 C10.8033309,8.35 10.426668,8.52499825 10.16,8.875 C9.893332,9.22500175 9.76,9.73333 9.76,10.4 C9.76,11.06667 9.88833205,11.5749982 10.145,11.925 C10.401668,12.2750017 10.7733309,12.45 11.26,12.45 C11.6266685,12.45 11.9166656,12.3633342 12.13,12.19 C12.3433344,12.0166658 12.4899996,11.7433352 12.57,11.37 L14.13,11.81 Z M17.37,8.6 C18.2033375,8.6 18.8516644,8.82833105 19.315,9.285 C19.7783357,9.74166895 20.01,10.3799959 20.01,11.2 C20.01,12.0200041 19.7783357,12.658331 19.315,13.115 C18.8516644,13.5716689 18.2033375,13.8 17.37,13.8 C16.5366625,13.8 15.8883357,13.5716689 15.425,13.115 C14.9616644,12.658331 14.73,12.0200041 14.73,11.2 C14.73,10.3799959 14.9616644,9.74166895 15.425,9.285 C15.8883357,8.82833105 16.5366625,8.6 17.37,8.6 Z M17.37,9.81 C17.0499984,9.81 16.8133341,9.9199989 16.66,10.14 C16.5066659,10.3600011 16.43,10.7133309 16.43,11.2 C16.43,11.6866691 16.5066659,12.0399989 16.66,12.26 C16.8133341,12.4800011 17.0499984,12.59 17.37,12.59 C17.6900016,12.59 17.9266659,12.4800011 18.08,12.26 C18.2333341,12.0399989 18.31,11.6866691 18.31,11.2 C18.31,10.7133309 18.2333341,10.3600011 18.08,10.14 C17.9266659,9.9199989 17.6900016,9.81 17.37,9.81 Z M24.08,8.6 C24.3066678,8.6 24.486666,8.6366663 24.62,8.71 L24.44,10.15 C24.373333,10.1099998 24.2833339,10.0750002 24.17,10.045 C24.0566661,10.0149998 23.9366673,10 23.81,10 C23.4899984,10 23.2233344,10.1016656 23.01,10.305 C22.7966656,10.5083344 22.69,10.7999981 22.69,11.18 L22.69,13.7 L20.99,13.7 L20.99,8.7 L22.49,8.7 L22.56,9.78 C22.6800006,9.3999981 22.8683321,9.10833435 23.125,8.905 C23.381668,8.70166565 23.6999981,8.6 24.08,8.6 Z M30.16,11.13 C30.16,11.3566678 30.1433335,11.5433326 30.11,11.69 L26.7,11.69 C26.7533336,12.0033349 26.8683325,12.2333326 27.045,12.38 C27.2216676,12.5266674 27.4566652,12.6 27.75,12.6 C27.9966679,12.6 28.1983326,12.5533338 28.355,12.46 C28.5116675,12.3666662 28.6166664,12.2300009 28.67,12.05 L30.05,12.49 C29.9099993,12.9166688 29.6383354,13.2416655 29.235,13.465 C28.8316647,13.6883344 28.3366696,13.8 27.75,13.8 C26.8766623,13.8 26.2083357,13.5733356 25.745,13.12 C25.2816644,12.6666644 25.05,12.0266708 25.05,11.2 C25.05,10.3733292 25.2766644,9.7333356 25.73,9.28 C26.1833356,8.8266644 26.8266625,8.6 27.66,8.6 C28.4666707,8.6 29.0849979,8.82166445 29.515,9.265 C29.9450022,9.70833555 30.16,10.329996 30.16,11.13 Z M27.65,9.79 C27.1099973,9.79 26.7900005,10.1166634 26.69,10.77 L28.57,10.77 C28.4899996,10.1166634 28.183336,9.79 27.65,9.79 Z" id="Core" fill="#FFFFFF" fill-rule="nonzero"></path>
                                </g>
                            </g>
                        </g>
                    </g>
                </g>
            </g>
        </g>
    </g>
</svg>