<?xml version="1.0" encoding="UTF-8"?>
<svg width="61px" height="21px" viewBox="0 0 61 21" version="1.1" xmlns="http://www.w3.org/2000/svg" xmlns:xlink="http://www.w3.org/1999/xlink">
    <!-- Generator: Sketch 54.1 (76490) - https://sketchapp.com -->
    <title>dictionary-required</title>
    <desc>Created with Sketch.</desc>
    <g id="Pages---Documentation" stroke="none" stroke-width="1" fill="none" fill-rule="evenodd">
        <g id="Documentation/Dictionary-details" transform="translate(-498.000000, -403.000000)">
            <g id="content" transform="translate(30.000000, 78.000000)">
                <g id="Sample-Registration" transform="translate(0.000000, 204.000000)">
                    <g id="Table" transform="translate(0.000000, 84.000000)">
                        <g id="Field-row" transform="translate(0.000000, 28.000000)">
                            <g id="attribute" transform="translate(462.000000, 0.031579)">
                                <g id="dictionary-required" transform="translate(6.000000, 9.000000)">
                                    <rect id="Rectangle" fill="#E75471" x="0" y="0" width="61" height="20" rx="8"></rect>
                                    <path d="M11.695,10.59 L10.665,10.59 L10.665,13 L8.975,13 L8.975,6.4 L12.125,6.4 C12.925004,6.4 13.5399978,6.5799982 13.97,6.94 C14.4000021,7.3000018 14.615,7.8199966 14.615,8.5 C14.615,8.9800024 14.5050011,9.3799984 14.285,9.7 C14.0649989,10.0200016 13.7450021,10.2566659 13.325,10.41 L15.005,13 L13.105,13 L11.695,10.59 Z M10.665,9.37 L11.835,9.37 C12.2016685,9.37 12.4683325,9.303334 12.635,9.17 C12.8016675,9.036666 12.885,8.8233348 12.885,8.53 C12.885,8.2433319 12.8016675,8.033334 12.635,7.9 C12.4683325,7.766666 12.2016685,7.7 11.835,7.7 L10.665,7.7 L10.665,9.37 Z M20.615,10.43 C20.615,10.6566678 20.5983335,10.8433326 20.565,10.99 L17.155,10.99 C17.2083336,11.3033349 17.3233324,11.5333326 17.5,11.68 C17.6766675,11.8266674 17.9116652,11.9 18.205,11.9 C18.4516679,11.9 18.6533325,11.8533338 18.81,11.76 C18.9666674,11.6666662 19.0716664,11.5300009 19.125,11.35 L20.505,11.79 C20.3649993,12.2166688 20.0933353,12.5416655 19.69,12.765 C19.2866646,12.9883344 18.7916696,13.1 18.205,13.1 C17.3316623,13.1 16.6633356,12.8733356 16.2,12.42 C15.7366643,11.9666644 15.505,11.3266708 15.505,10.5 C15.505,9.6733292 15.7316644,9.0333356 16.185,8.58 C16.6383356,8.1266644 17.2816625,7.9 18.115,7.9 C18.9216707,7.9 19.5399978,8.12166445 19.97,8.565 C20.4000021,9.00833555 20.615,9.629996 20.615,10.43 Z M18.105,9.09 C17.5649973,9.09 17.2450005,9.4166634 17.145,10.07 L19.025,10.07 C18.9449996,9.4166634 18.638336,9.09 18.105,9.09 Z M26.635,8 L26.635,15.1 L24.935,15.1 L24.935,12.17 C24.7883326,12.4633348 24.5866679,12.6916658 24.33,12.855 C24.073332,13.0183342 23.7716684,13.1 23.425,13.1 C22.7783301,13.1 22.2733351,12.8700023 21.91,12.41 C21.5466648,11.9499977 21.365,11.3066708 21.365,10.48 C21.365,9.6666626 21.5449982,9.0333356 21.905,8.58 C22.2650018,8.1266644 22.7683301,7.9 23.415,7.9 C23.8083353,7.9 24.1499985,8.0033323 24.44,8.21 C24.7300014,8.4166677 24.9449993,8.6966649 25.085,9.05 L25.145,8 L26.635,8 Z M24.015,11.85 C24.3083348,11.85 24.5349992,11.7366678 24.695,11.51 C24.8550008,11.2833322 24.935,10.9633354 24.935,10.55 L24.935,10.45 C24.935,10.0299979 24.8533341,9.70833445 24.69,9.485 C24.5266659,9.26166555 24.3016681,9.15 24.015,9.15 C23.3883302,9.15 23.075,9.5999955 23.075,10.5 C23.075,11.4000045 23.3883302,11.85 24.015,11.85 Z M32.835,8 L32.835,13 L31.315,13 L31.265,12.07 C30.9516651,12.7566701 30.3750042,13.1 29.535,13.1 C29.001664,13.1 28.5833348,12.9583348 28.28,12.675 C27.9766651,12.3916652 27.825,11.9466697 27.825,11.34 L27.825,8 L29.525,8 L29.525,10.91 C29.525,11.2366683 29.5816661,11.466666 29.695,11.6 C29.8083339,11.733334 29.9816655,11.8 30.215,11.8 C30.4950014,11.8 30.7183325,11.7050009 30.885,11.515 C31.0516675,11.324999 31.135,11.0366686 31.135,10.65 L31.135,8 L32.835,8 Z M34.905,7.42 C34.5583316,7.42 34.3066674,7.35500065 34.15,7.225 C33.9933325,7.09499935 33.915,6.8900014 33.915,6.61 C33.915,6.3233319 33.9933325,6.11500065 34.15,5.985 C34.3066674,5.85499935 34.5583316,5.79 34.905,5.79 C35.2516684,5.79 35.5033325,5.85499935 35.66,5.985 C35.8166674,6.11500065 35.895,6.3233319 35.895,6.61 C35.895,6.8900014 35.8166674,7.09499935 35.66,7.225 C35.5033325,7.35500065 35.2516684,7.42 34.905,7.42 Z M35.755,13 L34.055,13 L34.055,8 L35.755,8 L35.755,13 Z M40.055,7.9 C40.2816678,7.9 40.461666,7.9366663 40.595,8.01 L40.415,9.45 C40.348333,9.4099998 40.2583339,9.37500015 40.145,9.345 C40.0316661,9.31499985 39.9116673,9.3 39.785,9.3 C39.4649984,9.3 39.1983344,9.40166565 38.985,9.605 C38.7716656,9.80833435 38.665,10.0999981 38.665,10.48 L38.665,13 L36.965,13 L36.965,8 L38.465,8 L38.535,9.08 C38.6550006,8.6999981 38.8433321,8.40833435 39.1,8.205 C39.3566679,8.00166565 39.6749981,7.9 40.055,7.9 Z M46.135,10.43 C46.135,10.6566678 46.1183335,10.8433326 46.085,10.99 L42.675,10.99 C42.7283336,11.3033349 42.8433324,11.5333326 43.02,11.68 C43.1966676,11.8266674 43.4316652,11.9 43.725,11.9 C43.9716679,11.9 44.1733325,11.8533338 44.33,11.76 C44.4866674,11.6666662 44.5916664,11.5300009 44.645,11.35 L46.025,11.79 C45.8849993,12.2166688 45.6133353,12.5416655 45.21,12.765 C44.8066646,12.9883344 44.3116696,13.1 43.725,13.1 C42.8516623,13.1 42.1833356,12.8733356 41.72,12.42 C41.2566643,11.9666644 41.025,11.3266708 41.025,10.5 C41.025,9.6733292 41.2516644,9.0333356 41.705,8.58 C42.1583356,8.1266644 42.8016625,7.9 43.635,7.9 C44.4416707,7.9 45.0599978,8.12166445 45.49,8.565 C45.9200021,9.00833555 46.135,9.629996 46.135,10.43 Z M43.625,9.09 C43.0849973,9.09 42.7650005,9.4166634 42.665,10.07 L44.545,10.07 C44.4649996,9.4166634 44.158336,9.09 43.625,9.09 Z M52.155,5.88 L52.155,13 L50.625,13 L50.565,12.05 C50.4183326,12.3766683 50.2033347,12.6333324 49.92,12.82 C49.6366652,13.0066676 49.3083352,13.1 48.935,13.1 C48.2883301,13.1 47.7833351,12.8733356 47.42,12.42 C47.0566648,11.9666644 46.875,11.3333374 46.875,10.52 C46.875,9.6933292 47.0583315,9.0500023 47.425,8.59 C47.7916685,8.1299977 48.2983301,7.9 48.945,7.9 C49.2983351,7.9 49.6016654,7.9833325 49.855,8.15 C50.1083346,8.3166675 50.3083326,8.5466652 50.455,8.84 L50.455,5.88 L52.155,5.88 Z M49.525,11.85 C49.7983347,11.85 50.0166658,11.7516676 50.18,11.555 C50.3433341,11.3583323 50.4349999,11.0733352 50.455,10.7 L50.455,10.3 C50.4349999,9.9333315 50.3433341,9.650001 50.18,9.45 C50.0166658,9.249999 49.7983347,9.15 49.525,9.15 C49.2249985,9.15 48.9933341,9.2599989 48.83,9.48 C48.6666658,9.7000011 48.585,10.0399977 48.585,10.5 C48.585,10.9600023 48.6666658,11.2999989 48.83,11.52 C48.9933341,11.7400011 49.2249985,11.85 49.525,11.85 Z" id="Required" fill="#FFFFFF" fill-rule="nonzero"></path>
                                </g>
                            </g>
                        </g>
                    </g>
                </g>
            </g>
        </g>
    </g>
</svg>