<?xml version="1.0" encoding="UTF-8"?>
<svg width="44px" height="44px" viewBox="0 0 44 44" version="1.1" xmlns="http://www.w3.org/2000/svg" xmlns:xlink="http://www.w3.org/1999/xlink">
    <!-- Generator: Sketch 54.1 (76490) - https://sketchapp.com -->
    <title>icons/brand/controlled data</title>
    <desc>Created with Sketch.</desc>
    <defs>
        <polygon id="path-1" points="2.97916667e-05 0.125125 15.9087798 0.125125 15.9087798 6.13109372 2.97916667e-05 6.13109372"></polygon>
        <polygon id="path-3" points="0.148839167 0.119166667 12.4527975 0.119166667 12.4527975 12.4230952 0.148839167 12.4230952"></polygon>
        <polygon id="path-5" points="0.250062313 0.250187437 6.25625 0.250187437 6.25625 6.25618744 0.250062313 6.25618744"></polygon>
    </defs>
    <g id="Pages---All-Users" stroke="none" stroke-width="1" fill="none" fill-rule="evenodd">
        <g id="General/HomepageRevised" transform="translate(-1094.000000, -457.000000)">
            <g id="content" transform="translate(-36.000000, 63.000000)">
                <g id="data-callouts2" transform="translate(175.877169, 378.000000)">
                    <g id="data-submission" transform="translate(794.097849, 16.000000)">
                        <g id="icons/brand/analysis-workflows" transform="translate(160.000000, 0.000000)">
                            <circle id="Oval" fill="#DED4F2" cx="22" cy="22" r="22"></circle>
                            <g id="Group-12" stroke-width="1" transform="translate(7.700000, 12.100000)">
                                <g id="Group-3">
                                    <mask id="mask-2" fill="white">
                                        <use xlink:href="#path-1"></use>
                                    </mask>
                                    <g id="Clip-2"></g>
                                    <path d="M2.86002979,4.72343747 C2.02586313,4.72343747 1.34065479,4.00396872 1.34065479,3.12809372 C1.34065479,2.25221872 2.02586313,1.53274997 2.86002979,1.53274997 C3.69419646,1.53274997 4.37940479,2.25221872 4.37940479,3.12809372 C4.37940479,4.00396872 3.69419646,4.72343747 2.86002979,4.72343747 L2.86002979,4.72343747 Z M13.4956548,3.84756247 L12.9594048,4.37934372 C12.6912798,4.66087497 12.6614881,5.09881247 12.9296131,5.38034372 C13.0487798,5.53674997 13.2573215,5.59931247 13.4360715,5.59931247 C13.6148215,5.59931247 13.7637798,5.53674997 13.8829465,5.41162497 L15.7002381,3.65987497 C15.8491965,3.53474997 15.9087798,3.34706247 15.9087798,3.12809372 C15.9087798,2.94040622 15.8194048,2.75271872 15.7002381,2.59631247 L13.8829465,0.844562469 C13.6148215,0.563031219 13.1679465,0.594312469 12.9296131,0.875843719 C12.6614881,1.15737497 12.6912798,1.62659372 12.9594048,1.87684372 L13.4956548,2.40862497 L5.63065479,2.40862497 C5.33273813,1.09481247 4.20065479,0.125093719 2.86002979,0.125093719 C1.28107146,0.125093719 2.97916667e-05,1.47018747 2.97916667e-05,3.12809372 C2.97916667e-05,4.78599997 1.28107146,6.13109372 2.86002979,6.13109372 C4.20065479,6.13109372 5.33273813,5.16137497 5.63065479,3.84756247 L13.4956548,3.84756247 Z" id="Fill-1" fill="#523785" mask="url(#mask-2)"></path>
                                </g>
                                <g id="Group-6" transform="translate(10.725000, 0.000000)">
                                    <mask id="mask-4" fill="white">
                                        <use xlink:href="#path-3"></use>
                                    </mask>
                                    <g id="Clip-5"></g>
                                    <path d="M9.56300583,4.49851187 C8.72883917,4.49851187 8.04363083,3.81330354 8.04363083,2.97913687 C8.04363083,2.14497021 8.72883917,1.45976187 9.56300583,1.45976187 C10.3974704,1.45976187 11.0826788,2.14497021 11.0826788,2.97913687 C11.0826788,3.81330354 10.3974704,4.49851187 9.56300583,4.49851187 M9.56300583,0.119136875 C7.9840475,0.119136875 6.70300583,1.40017854 6.70300583,2.97913687 C6.70300583,3.51538687 6.85196417,4.02184521 7.12038708,4.46872021 L1.57883917,10.0099702 L1.60863083,9.26517854 C1.6384225,8.87788687 1.34050583,8.57997021 0.953512083,8.55017854 C0.5659225,8.55017854 0.268005833,8.81830354 0.238214167,9.20559521 L0.148839167,11.7080952 C0.148839167,11.8868452 0.208720417,12.0953869 0.35767875,12.2145535 C0.4765475,12.3337202 0.655595417,12.4230952 0.8340475,12.4230952 L0.863839167,12.4230952 L3.33684542,12.3337202 C3.72383917,12.3039285 3.99226208,12.0060119 3.99226208,11.6187202 C3.9621725,11.2314285 3.66425583,10.9633035 3.27696417,10.9633035 L2.5321725,10.9930952 L8.10351208,5.42205354 C8.55038708,5.69017854 9.02675583,5.83913687 9.59309542,5.83913687 C11.1717558,5.83913687 12.4527975,4.55809521 12.4527975,2.97913687 C12.4527975,1.40017854 11.1422621,0.119136875 9.56300583,0.119136875" id="Fill-4" fill="#523785" mask="url(#mask-4)"></path>
                                </g>
                                <path d="M8.25463483,17.3024414 C7.41109551,17.3024414 6.7181882,16.5529948 6.7181882,15.640625 C6.7181882,14.7285811 7.41109551,13.9788086 8.25463483,13.9788086 C9.09817416,13.9788086 9.79108146,14.7285811 9.79108146,15.640625 C9.76095506,16.5529948 9.09817416,17.3024414 8.25463483,17.3024414 L8.25463483,17.3024414 Z M19.3712781,13.2622725 C19.1001404,12.9686849 18.6482444,13.0012695 18.4072331,13.2945313 C18.1360955,13.5881188 18.1662219,14.0768883 18.4373596,14.3372396 L18.9796348,14.8915042 L11.0563904,14.8915042 C10.7551264,13.5226237 9.61032303,12.5125 8.25463483,12.5125 C6.65793539,12.5125 5.3625,13.9139652 5.3625,15.640625 C5.3625,17.3676107 6.65793539,18.76875 8.25463483,18.76875 C9.61032303,18.76875 10.7551264,17.7586263 11.0563904,16.3900716 L19.0097612,16.3900716 L18.467486,16.9440104 C18.1963483,17.2372721 18.1662219,17.693457 18.4373596,17.9870446 C18.5578652,18.1499678 18.76875,18.2148112 18.9495084,18.2148112 C19.1302669,18.2148112 19.2808989,18.1499678 19.4014045,18.0193034 L21.2391152,16.1948896 C21.3897472,16.0642253 21.45,15.8690433 21.45,15.640625 C21.45,15.4125326 21.3596208,15.2496094 21.2391152,15.0866862 L19.3712781,13.2622725 Z" id="Fill-7" fill="#523785"></path>
                                <g id="Group-11" transform="translate(22.343750, 12.512500)">
                                    <mask id="mask-6" fill="white">
                                        <use xlink:href="#path-5"></use>
                                    </mask>
                                    <g id="Clip-10"></g>
                                    <path d="M3.25337513,4.84853119 C2.37718731,4.84853119 1.65771856,4.12906244 1.65771856,3.25318744 C1.65771856,2.37762525 2.37718731,1.65784369 3.25337513,1.65784369 C4.12925013,1.65784369 4.84871888,2.37762525 4.84871888,3.25318744 C4.81743763,4.12906244 4.12925013,4.84853119 3.25337513,4.84853119 M3.25337512,0.250187437 C1.59515606,0.250187437 0.250062313,1.595594 0.250062313,3.25318744 C0.250062313,4.91109369 1.59515606,6.25618744 3.25337512,6.25618744 C4.91128137,6.25618744 6.25637513,4.91109369 6.25637513,3.25318744 C6.25637513,1.595594 4.91128137,0.250187437 3.25337512,0.250187437" id="Fill-9" fill="#523785" mask="url(#mask-6)"></path>
                                </g>
                            </g>
                        </g>
                    </g>
                </g>
            </g>
        </g>
    </g>
</svg>