<svg xmlns="http://www.w3.org/2000/svg" width="40" height="40" viewBox="0 0 40 40">
    <g fill="none" fill-rule="evenodd">
        <circle cx="20" cy="20" r="20" fill="#DED4F2"/>
        <path fill="#7F55CC" d="M19.863 21.017l-4.365-2.014a3.973 3.973 0 0 0-.443.966l4.59 2.118c-.007-.362.067-.73.218-1.07zm.713-.93a4.035 4.035 0 0 0-.023-.488l-3.972-1.833c-.23.2-.46.424-.67.675l4.315 1.99c.103-.124.22-.24.35-.345zm1.35-.563c.844-.093 1.706.226 2.25.918l1.143 1.457.251-.188c.434-.324 1.048-.251 1.372.162l2.72 3.466c.324.413.236 1.01-.198 1.333l-4.535 3.384c-.433.323-1.047.25-1.371-.162l-2.72-3.467c-.325-.412-.236-1.01.197-1.333l.252-.188-.909-1.158c-.897.956-1.939 1.537-2.427 1.777l-.082-.137a9.5 9.5 0 0 0-.704-.942l-.02-.052a7.12 7.12 0 0 0 .957-.53l-2.925-1.35a7.64 7.64 0 0 0 .949 1.817c.103.15.233.31.37.476.029.036.055.07.085.105.238.29.508.62.752 1.003.693 1.098 1.168 2.653.057 5.085l-1.242-.573c.037-.082.07-.162.104-.242l-4.9-2.26c-.038.08-.076.158-.11.235l-.038-.015-1.174-.542-.03-.016c.43-.936 1.266-2.51 3.6-3.182.19.37.406.742.667 1.12.016.023.034.045.05.07l.008.032a4.879 4.879 0 0 0-1.402.533l3.732 1.722c-.129-.883-.634-1.498-1.13-2.1a9.553 9.553 0 0 1-.524-.674c-1.341-1.943-1.767-3.796-1.263-5.508.646-2.195 2.638-3.48 3.577-3.98.243.384.513.714.752 1.003.03.036.056.07.086.105-.204.1-.558.291-.96.568l3.189 1.471c-.195-.66-.532-1.348-1.026-2.063-.125-.181-.285-.376-.454-.581-.924-1.122-2.321-2.816-.796-6.123l1.243.573c-.026.056-.047.107-.07.162l4.905 2.263.073-.16 1.242.573c-.38.825-1.07 2.317-3.462 3.016-.167-.305-.348-.61-.562-.92a5.6 5.6 0 0 0-.217-.29 5.43 5.43 0 0 0 1.324-.469l-3.77-1.74c.092.961.622 1.612 1.146 2.245.187.229.365.445.524.675.856 1.24 1.339 2.442 1.445 3.596zm.01.857c-.027.356-.09.707-.192 1.053a5.453 5.453 0 0 1-.808 1.636l1.057 1.31 2.62-1.955-1.143-1.457a1.628 1.628 0 0 0-1.534-.587zm-9.644 6.24c-.246.225-.44.466-.6.707l4.796 2.213c.099-.327.155-.624.18-.9l-4.376-2.02zm2.635-5.958a3.97 3.97 0 0 0 .033.999l3.775 1.742a6.36 6.36 0 0 0 .703-.66l-4.511-2.081zm4.106-9.288c-.105.32-.174.615-.208.888l4.421 2.04a3.17 3.17 0 0 0 .61-.703l-4.823-2.225zm7.444 15.88a.506.506 0 0 0 .113-.725l-.784-.987c.1-.28.061-.596-.134-.842-.315-.397-.916-.464-1.34-.15-.426.314-.516.89-.201 1.287a.943.943 0 0 0 .807.345l.784.988a.551.551 0 0 0 .755.084z"/>
    </g>
</svg>
