<svg xmlns="http://www.w3.org/2000/svg" width="40" height="40" viewBox="0 0 40 40">
    <g fill="none" fill-rule="evenodd">
        <circle cx="20" cy="20" r="20" fill="#D1F2F8"/>
        <path fill="#4BCEE5" d="M26.348 21.14a1.866 1.866 0 0 0 2.39 1.16 1.91 1.91 0 0 0 1.142-2.427 1.866 1.866 0 0 0-2.39-1.159 1.886 1.886 0 0 0-1.142 1.159h-2.612v-3.169c.004-1.553 1.117-2.873 2.628-3.118a1.87 1.87 0 0 0 2.425 1.105 1.916 1.916 0 0 0 1.088-2.461 1.87 1.87 0 0 0-2.425-1.105 1.895 1.895 0 0 0-1.12 1.197c-2.188.265-3.837 2.146-3.845 4.382v3.169h-3.746v-1.268c0-1.4-1.118-2.535-2.497-2.535h-3.747c-1.379 0-2.497 1.135-2.497 2.535v3.803c0 1.4 1.118 2.535 2.497 2.535h3.747c1.38 0 2.497-1.135 2.497-2.535V21.14h3.746v3.169c.008 2.237 1.657 4.117 3.845 4.382a1.86 1.86 0 0 0 2.353 1.215c.98-.323 1.516-1.392 1.197-2.387a1.86 1.86 0 0 0-2.352-1.216c-.536.177-.964.59-1.166 1.124-1.51-.245-2.624-1.565-2.628-3.118V21.14h2.612z"/>
    </g>
</svg>
