<svg xmlns="http://www.w3.org/2000/svg" width="40" height="40" viewBox="0 0 40 40">
    <g fill="none" fill-rule="evenodd">
        <circle cx="20" cy="20" r="20" fill="#C0DCF3"/>
        <path fill="#0774D3" d="M14.744 14.218a.65.65 0 0 1-.648-.649v-2.712a.649.649 0 0 1 1.297 0v2.712a.65.65 0 0 1-.649.649zm11.262 0a.65.65 0 0 1-.649-.649v-2.712a.649.649 0 0 1 1.297 0v2.712c0 .358-.29.649-.648.649zm1.562 12.685v-8.86c0-.354-.316-.641-.708-.641H13.89c-.391 0-.708.287-.708.64v8.861c0 .354.317.64.708.64h12.97c.391 0 .708-.286.708-.64zm.413-14.454c.977 0 1.77.792 1.77 1.769v13.68c0 .976-.793 1.768-1.77 1.768H12.769A1.769 1.769 0 0 1 11 27.897v-13.68c0-.976.792-1.768 1.769-1.768h.619v1.12c0 .748.608 1.357 1.356 1.357.748 0 1.356-.609 1.356-1.357v-1.12h8.55v1.12c0 .748.608 1.357 1.356 1.357.748 0 1.356-.609 1.356-1.357v-1.12h.619zm-13.56 9.57v-3.512h3.433v3.512h-3.432zm4.321 0v-3.512h3.432v3.512h-3.432zm-4.32 4.316v-3.511h3.432v3.511h-3.432zm4.32 0v-3.511h3.432v3.511h-3.432zm4.48-4.316v-3.512h3.432v3.512h-3.431zm0 4.316v-3.511h3.432v3.511h-3.431z"/>
    </g>
</svg>
