<svg xmlns="http://www.w3.org/2000/svg" width="40" height="40" viewBox="0 0 40 40">
    <g fill="none" fill-rule="evenodd">
        <circle cx="20" cy="20" r="20" fill="#FDD6CB"/>
        <path fill="#F95D31" d="M11.32 27.162h17.162a1.32 1.32 0 1 1 0 2.64H11.32a1.32 1.32 0 1 1 0-2.64zm4.93-8.87l2.232 2.227v-9.007c0-.774.63-1.402 1.406-1.402.777 0 1.406.628 1.406 1.402v9.032l2.257-2.252a1.408 1.408 0 0 1 1.989 0 1.4 1.4 0 0 1 0 1.983l-4.976 4.963a.94.94 0 0 1-1.327 0l-4.975-4.963a1.4 1.4 0 0 1 0-1.983 1.408 1.408 0 0 1 1.988 0z"/>
    </g>
</svg>
